<?xml version="1.0" standalone="no"?>
<!DOCTYPE svg PUBLIC "-//W3C//DTD SVG 20010904//EN"
 "http://www.w3.org/TR/2001/REC-SVG-20010904/DTD/svg10.dtd">
<svg version="1.0" xmlns="http://www.w3.org/2000/svg"
 width="360.000000pt" height="640.000000pt" viewBox="0 0 360.000000 640.000000"
 preserveAspectRatio="xMidYMid meet">

<g transform="translate(0.000000,640.000000) scale(0.100000,-0.100000)"
fill="#000000" stroke="none">
<path d="M2366 2811 c-17 -6 -17 -8 -4 -14 10 -3 19 0 22 9 3 8 4 14 3 13 -1
0 -11 -4 -21 -8z"/>
<path d="M2465 2761 l-30 -7 23 -13 c13 -7 25 -11 26 -9 1 2 8 11 15 21 14 18
13 18 -34 8z"/>
<path d="M2579 2699 c-8 -5 -8 -9 0 -13 6 -4 11 -4 11 1 0 4 4 3 8 -4 6 -9 11
-7 20 7 10 16 9 18 -9 17 -11 -1 -25 -4 -30 -8z"/>
<path d="M2405 2670 c-11 -5 -15 -9 -8 -9 6 -1 19 -4 29 -8 11 -4 15 -3 11 4
-4 6 -1 14 5 16 9 4 8 5 -2 6 -8 0 -24 -4 -35 -9z"/>
<path d="M2735 2625 c-40 -13 -40 -13 -12 -20 15 -4 27 -12 27 -17 0 -5 5 -8
11 -6 6 2 9 6 8 8 -1 3 3 15 10 28 13 25 12 25 -44 7z"/>
<path d="M2595 2610 c-3 -5 -23 -10 -43 -10 l-37 -1 29 -25 c34 -30 46 -28 63
14 12 29 3 46 -12 22z"/>
<path d="M2697 2563 c-18 -5 -18 -5 0 -19 18 -13 42 -20 30 -7 -4 3 -2 12 4
20 12 14 3 16 -34 6z"/>
<path d="M2765 2504 c-16 -7 -40 -13 -53 -14 -31 0 -17 -20 14 -20 14 0 23 -4
19 -9 -3 -5 -1 -12 5 -16 6 -3 13 2 17 12 3 10 13 26 21 36 20 23 13 27 -23
11z"/>
<path d="M2894 2501 c-5 -5 -25 -14 -44 -19 -32 -10 -33 -11 -12 -17 12 -4 22
-12 22 -17 0 -5 5 -8 11 -6 6 2 9 6 7 10 -2 3 6 15 16 27 19 21 19 40 0 22z"/>
<path d="M160 2362 c0 -23 -4 -30 -14 -26 -8 3 -17 0 -22 -7 -4 -8 -3 -10 4
-5 7 4 12 3 12 -2 0 -15 -32 -24 -43 -13 -7 7 -6 15 1 24 9 10 8 18 -3 33 -14
18 -14 18 -15 -3 0 -16 -4 -21 -15 -17 -8 4 -15 1 -15 -5 0 -7 -8 -8 -25 -1
l-25 10 0 -1175 0 -1175 1800 0 1800 0 0 993 0 994 -25 13 c-14 7 -25 17 -25
22 0 5 -4 7 -9 4 -5 -4 -8 -17 -7 -31 2 -13 0 -22 -4 -20 -5 3 -21 -2 -36 -10
-35 -18 -61 -19 -67 -2 -4 7 -6 6 -6 -4 -1 -9 -9 -19 -18 -23 -63 -22 -78 -25
-84 -14 -5 7 -14 6 -30 -6 -34 -23 -57 -20 -26 4 14 11 29 20 34 20 5 0 9 9
10 20 2 21 -7 20 -40 -8 -9 -8 -20 -12 -25 -8 -4 4 2 14 12 22 11 8 16 14 12
14 -5 0 -4 6 2 13 8 10 6 16 -9 25 -11 7 -17 17 -14 22 3 5 -4 14 -15 20 -11
6 -18 16 -14 22 4 6 1 9 -7 6 -8 -3 -13 -17 -12 -32 2 -23 0 -26 -13 -16 -19
16 -18 5 2 -25 20 -31 8 -32 -24 -2 -20 17 -24 18 -19 5 4 -10 2 -18 -3 -18
-5 0 -5 -13 1 -32 12 -42 12 -78 1 -60 -9 13 -42 6 -42 -9 0 -5 -10 -19 -21
-30 -18 -18 -27 -20 -48 -12 -21 7 -26 15 -24 39 2 22 0 25 -7 14 -9 -13 -11
-13 -19 -1 -8 12 -11 12 -25 -1 -8 -9 -12 -18 -9 -22 4 -3 0 -6 -7 -6 -21 0
-81 41 -74 51 3 5 0 9 -7 9 -6 0 -9 8 -6 20 3 11 2 20 -1 21 -4 0 -15 2 -24 4
-10 2 -18 -3 -18 -10 0 -10 -16 -12 -52 -6 -5 0 -8 8 -8 16 0 8 -4 15 -10 15
-5 0 -10 11 -10 23 0 22 -17 43 -49 62 -9 5 -12 4 -7 -3 4 -7 1 -12 -8 -12
-10 0 -13 -6 -9 -16 5 -14 3 -14 -14 -3 -11 7 -26 27 -33 45 -8 18 -16 31 -19
29 -15 -9 -70 53 -76 85 -5 25 -15 40 -15 21 0 -21 -37 -53 -57 -49 -12 3 -17
11 -15 28 l2 24 -23 -27 c-21 -25 -45 -38 -33 -18 4 5 3 17 -1 27 -6 15 -8 14
-16 -7 -5 -13 -10 -33 -11 -44 -2 -28 -13 -43 -48 -61 -33 -17 -52 -6 -40 24
4 11 1 14 -10 10 -9 -4 -21 -1 -27 5 -8 8 -11 6 -11 -7 0 -9 -4 -15 -9 -12 -5
3 -11 -3 -14 -14 -3 -11 -1 -22 3 -25 13 -8 -22 -63 -47 -74 -20 -9 -23 -8
-23 9 0 11 -4 20 -9 20 -6 0 -8 10 -6 21 6 31 -4 42 -23 27 -10 -8 -13 -9 -9
-1 4 6 3 14 -3 18 -5 3 -10 1 -10 -5 0 -6 -4 -9 -9 -6 -5 3 -11 -1 -15 -9 -8
-22 -25 -18 -19 5 3 11 1 20 -5 20 -6 0 -9 8 -7 18 2 10 -1 25 -6 33 -7 11 -9
11 -9 -3 0 -10 -4 -18 -9 -18 -5 0 -11 -8 -13 -17 -3 -15 -9 -11 -33 17 -68
79 -96 104 -104 91 -6 -9 -10 -8 -15 5 -5 14 -9 15 -15 6 -6 -10 -11 -10 -21
3 -10 12 -15 13 -28 3 -13 -11 -14 -10 -8 10 5 13 3 22 -3 22 -6 0 -11 11 -11
25 0 34 -16 31 -29 -5 -6 -18 -6 -30 0 -30 5 0 9 -4 9 -8 0 -5 -13 -9 -30 -9
-16 0 -30 4 -30 9 0 5 -9 4 -20 -2 -11 -6 -18 -15 -15 -21 4 -5 1 -9 -4 -9 -6
0 -11 5 -11 10 0 6 -4 10 -9 10 -5 0 -8 -11 -5 -24 4 -22 1 -24 -30 -23 -26 2
-32 5 -24 15 8 9 5 19 -12 37 -16 17 -26 21 -31 14 -4 -7 -12 -8 -20 -4 -9 6
-11 3 -6 -10 6 -14 3 -16 -13 -12 -13 3 -20 0 -20 -9 0 -8 -6 -13 -12 -11 -7
1 -12 -4 -10 -12 2 -8 -3 -11 -11 -8 -16 6 -37 -26 -40 -60 -1 -17 -11 -24
-45 -33 -46 -11 -66 -6 -58 16 3 7 1 16 -4 19 -6 4 -10 1 -10 -5 0 -7 -7 -10
-15 -6 -9 3 -15 0 -15 -9 0 -9 -6 -12 -15 -9 -10 4 -15 0 -15 -12 0 -9 -3 -14
-7 -11 -3 4 -12 -1 -19 -11 -10 -12 -13 -13 -14 -3 0 11 -3 11 -15 1 -11 -9
-15 -10 -15 -1 0 17 -28 43 -39 37 -16 -10 -18 19 -2 30 13 10 13 13 -2 28 -9
9 -15 22 -13 29 1 7 1 9 -1 4 -3 -4 -9 -4 -15 -1 -7 4 -7 0 -1 -12 5 -11 8
-25 7 -31 -1 -7 -2 -18 -3 -24 0 -5 -5 -8 -9 -5 -5 3 -9 -2 -9 -10 0 -9 6 -13
14 -9 10 3 13 -1 11 -13 -2 -9 -14 -19 -28 -20 l-24 -4 25 -19 c16 -13 18 -17
6 -13 -14 5 -18 2 -15 -10 2 -10 -10 -25 -31 -38 -30 -19 -34 -20 -28 -5 3 9
2 17 -3 17 -6 0 -10 11 -10 25 0 19 -4 23 -17 18 -11 -4 -14 -3 -9 5 4 7 2 12
-5 12 -6 0 -9 -8 -6 -20 3 -13 -2 -25 -14 -33 -10 -8 -16 -17 -12 -20 3 -4 0
-7 -8 -7 -11 0 -11 -2 1 -10 13 -9 13 -10 0 -10 -13 0 -13 -1 0 -10 13 -8 13
-9 0 -14 -8 -2 -30 -9 -49 -15 -19 -6 -37 -9 -40 -6 -7 8 21 25 31 19 4 -3 8
9 8 26 l0 32 -37 -22 c-21 -12 -31 -16 -22 -8 26 23 29 45 8 72 -11 14 -18 30
-15 35 4 5 -4 11 -16 13 -16 2 -23 10 -25 28 0 14 -2 32 -2 40 -1 8 -10 -3
-20 -25 -14 -30 -15 -44 -7 -54 9 -11 7 -13 -12 -7 -26 9 -29 -6 -6 -29 9 -9
14 -19 11 -22 -3 -3 -13 2 -22 11 -21 21 -39 21 -31 0 4 -12 2 -15 -9 -10 -8
3 -15 1 -15 -4 0 -6 4 -10 10 -10 5 0 7 -13 3 -32 -4 -22 -3 -29 5 -24 21 13
12 -5 -17 -34 -32 -32 -51 -25 -51 19 0 21 -2 23 -11 11 -7 -11 -12 -12 -15
-3 -3 7 -11 10 -19 7 -15 -6 -56 12 -67 30 -4 6 -2 14 5 18 9 6 9 8 0 8 -7 0
-16 18 -19 40 -6 36 -34 79 -34 52 0 -8 -8 -8 -22 -3 -13 5 -23 14 -23 20 0 6
-7 16 -15 21 -8 5 -11 10 -6 10 5 0 2 7 -5 17 -8 9 -13 18 -11 20 1 1 -1 4 -5
6 -5 1 -12 -8 -18 -20 -5 -13 -17 -23 -25 -23 -12 -1 -11 -3 3 -11 9 -5 17
-14 17 -19 0 -16 -30 -11 -36 5 -4 10 -13 13 -25 10 -11 -4 -19 -2 -19 5 0 6
5 8 10 5 6 -3 10 1 10 9 0 9 -4 16 -10 16 -5 0 -10 9 -10 21 0 11 4 18 9 14 5
-3 13 0 17 6 4 7 3 9 -2 6 -6 -3 -16 -2 -24 4 -12 7 -9 9 10 10 17 1 19 3 8 6
-10 2 -18 5 -18 6 0 1 4 18 10 36 7 27 7 32 -2 23 -21 -21 -31 -13 -25 21 3
20 0 40 -9 52 -13 18 -14 17 -14 -13z m1555 -151 c3 -5 2 -12 -3 -15 -5 -3 -9
1 -9 9 0 17 3 19 12 6z m-145 -21 c8 -5 13 -10 10 -11 -3 0 -13 -2 -22 -4 -10
-2 -18 3 -18 11 0 16 9 18 30 4z"/>
<path d="M3587 2218 c-2 -7 -1 -22 4 -33 6 -16 8 -14 8 13 1 33 -4 41 -12 20z"/>
<path d="M3585 2130 c5 -15 4 -20 -4 -16 -17 11 -13 -10 4 -24 13 -11 15 -8
15 18 0 17 -5 34 -11 38 -8 4 -9 -1 -4 -16z"/>
<path d="M1008 2093 c6 -2 18 -2 25 0 6 3 1 5 -13 5 -14 0 -19 -2 -12 -5z"/>
<path d="M3570 2061 c0 -5 7 -11 15 -15 8 -3 15 -1 15 3 0 5 -7 11 -15 15 -8
3 -15 1 -15 -3z"/>
<path d="M880 2040 c0 -5 5 -10 11 -10 5 0 7 5 4 10 -3 6 -8 10 -11 10 -2 0
-4 -4 -4 -10z"/>
<path d="M3574 2021 c21 -23 26 -26 26 -11 0 5 -10 15 -22 21 -23 12 -23 12
-4 -10z"/>
</g>
</svg>
