<?xml version="1.0" standalone="no"?>
<!DOCTYPE svg PUBLIC "-//W3C//DTD SVG 20010904//EN"
 "http://www.w3.org/TR/2001/REC-SVG-20010904/DTD/svg10.dtd">
<svg version="1.0" xmlns="http://www.w3.org/2000/svg"
 width="5500.000000pt" height="3143.000000pt" viewBox="0 0 5500.000000 3143.000000"
 preserveAspectRatio="xMidYMid meet">

<g transform="translate(0.000000,3143.000000) scale(0.100000,-0.100000)"
fill="#000000" stroke="none">
<path d="M0 28800 l0 -2630 199 0 c153 0 201 -3 210 -13 10 -13 18 -44 20 -74
1 -7 6 -13 12 -13 14 0 3 68 -14 89 -9 11 -7 17 11 29 26 17 28 32 5 33 -37 3
45 17 107 19 46 1 59 4 45 10 -19 8 -19 9 -1 9 13 1 16 5 9 14 -6 6 -11 38
-12 70 -2 46 1 57 13 57 12 0 16 -10 16 -41 0 -22 6 -47 14 -55 17 -16 136
-20 136 -4 0 6 -6 10 -14 10 -9 0 -15 15 -18 45 l-3 45 92 0 c50 0 95 5 98 10
3 6 -4 11 -17 11 -39 2 73 18 144 21 37 1 64 6 61 11 -3 5 -16 6 -29 3 -14 -4
-24 -2 -24 4 0 5 6 10 14 10 9 0 15 18 19 57 3 31 13 63 21 71 14 14 17 12 30
-19 9 -19 15 -26 16 -17 0 9 4 19 8 22 5 3 101 8 213 11 112 4 218 7 234 9 28
2 75 32 75 48 0 13 49 56 72 64 13 4 28 15 35 24 11 15 42 18 265 25 139 4
255 11 256 16 2 5 21 9 43 9 32 0 39 3 39 20 0 17 7 20 40 20 22 0 40 5 40 10
0 6 18 10 40 10 24 0 40 5 40 12 0 8 33 10 118 7 64 -3 100 -3 80 -1 -69 6
-39 22 42 22 64 0 80 -3 80 -15 0 -11 11 -15 40 -15 l40 0 0 44 0 43 143 6
c132 6 402 -6 297 -13 l-45 -3 50 -7 c28 -5 119 -9 203 -9 129 -1 152 1 152
14 0 11 -11 15 -42 15 -23 0 -39 3 -35 6 3 3 76 3 161 -1 l156 -7 0 -38 c0
-37 1 -38 43 -44 23 -3 112 -3 197 1 198 8 314 6 318 -7 2 -6 39 -10 83 -10
46 0 79 -4 79 -10 0 -5 18 -10 40 -10 22 0 40 -4 40 -10 0 -5 18 -10 40 -10
22 0 40 -4 40 -10 0 -5 18 -10 39 -10 22 0 41 -5 43 -12 3 -8 68 -12 234 -14
253 -3 355 -9 382 -23 29 -15 87 -31 110 -31 12 0 30 -4 40 -10 24 -14 218
-80 277 -95 32 -7 82 -10 140 -6 50 4 113 3 140 0 28 -4 83 -8 123 -8 77 -1
102 -20 30 -22 -29 -1 -16 -5 37 -10 44 -5 99 -6 123 -3 34 4 42 2 42 -10 0
-12 10 -16 40 -16 33 0 40 -3 40 -20 0 -16 7 -20 36 -20 19 0 42 -7 50 -15 9
-8 29 -15 45 -15 16 0 29 -4 29 -10 0 -6 33 -10 80 -10 44 0 80 -4 80 -9 0 -6
17 -12 38 -14 24 -3 21 -4 -10 -2 -27 1 -48 -2 -48 -6 0 -5 78 -10 173 -11 94
-1 188 -3 207 -4 19 -1 54 -2 78 -3 23 0 42 -6 42 -11 0 -19 50 -58 82 -65 23
-5 27 -9 17 -16 -10 -6 -2 -9 24 -9 26 0 37 -4 37 -15 0 -9 10 -15 26 -15 14
0 23 4 19 10 -3 6 -2 10 4 10 5 0 17 7 26 16 9 9 23 13 32 9 15 -5 15 -7 3
-15 -11 -7 -6 -10 18 -10 59 0 33 -18 -35 -25 -38 -3 -75 -8 -83 -9 -19 -5
142 -10 193 -7 28 2 37 -1 37 -13 0 -10 9 -16 25 -16 14 0 25 -4 25 -9 0 -26
137 -31 869 -31 695 0 754 2 779 18 14 9 23 12 19 5 -5 -7 1 -14 15 -18 52
-15 77 -28 71 -38 -4 -6 -1 -7 7 -2 8 5 18 1 27 -10 7 -11 13 -16 13 -12 0 4
18 -2 40 -13 25 -13 38 -25 34 -32 -4 -7 -3 -8 4 -4 6 4 21 2 33 -5 18 -9 19
-13 8 -21 -10 -7 -8 -8 8 -3 22 6 35 0 248 -118 50 -28 115 -64 145 -80 30
-16 98 -53 150 -82 88 -49 151 -83 290 -158 30 -16 60 -33 65 -37 6 -4 55 -31
110 -60 55 -29 129 -70 165 -90 36 -20 101 -56 145 -80 44 -23 98 -53 120 -65
22 -12 76 -41 120 -65 44 -23 89 -48 101 -56 19 -11 72 -40 259 -139 39 -20
76 -42 83 -48 10 -7 16 -8 20 0 4 6 22 14 40 18 18 4 36 13 39 21 3 9 20 14
43 14 22 0 40 5 42 13 4 9 63 13 241 15 183 3 237 7 237 17 0 13 72 24 184 27
49 1 53 2 19 5 -24 2 -43 9 -43 15 0 8 36 10 118 7 64 -3 100 -3 80 -1 -44 4
-51 21 -10 23 119 6 939 13 936 8 -2 -4 5 -9 16 -12 13 -3 25 5 42 29 13 19
26 34 31 34 4 0 7 6 7 14 0 8 4 16 8 18 4 2 39 43 77 93 89 115 261 293 339
352 124 93 332 176 515 207 119 20 337 21 456 1 388 -63 755 -249 1242 -630
135 -106 425 -368 570 -517 36 -37 72 -67 81 -67 90 0 528 2 563 3 l46 1 -26
32 c-18 23 -29 29 -37 22 -8 -7 -15 -6 -20 2 -4 8 -3 9 4 5 7 -4 12 -1 12 7 0
19 -60 88 -71 81 -5 -3 -6 1 -4 8 6 14 -100 148 -116 148 -5 0 -8 4 -6 8 6 22
-423 483 -578 622 -502 450 -1204 836 -1860 1025 -389 112 -728 133 -794 49
-74 -94 -43 -307 85 -573 29 -62 54 -115 54 -116 0 -2 -28 9 -62 23 -73 29
-188 40 -241 23 -76 -25 -149 -135 -190 -286 -25 -89 -47 -249 -47 -335 l0
-74 -134 135 c-384 390 -1017 858 -1644 1215 -354 201 -779 392 -1002 449 -8
2 -40 11 -71 20 -243 66 -485 59 -727 -21 -277 -91 -477 -268 -567 -501 l-28
-72 -61 43 c-96 69 -191 124 -328 193 -70 34 -130 63 -133 63 -3 0 -24 8 -48
19 -84 37 -144 60 -262 99 -134 44 -193 62 -215 66 -91 19 -91 16 3 52 206 79
307 190 292 322 -23 195 -133 495 -282 767 -87 160 -269 433 -385 577 -264
330 -535 590 -940 905 -1146 891 -2229 1476 -2532 1368 -69 -24 -164 -97 -205
-155 -47 -68 -69 -124 -77 -195 l-7 -55 -52 29 c-29 16 -92 51 -141 77 -49 26
-138 74 -199 107 -60 33 -144 78 -185 100 -41 22 -106 57 -143 79 -38 21 -71
38 -74 38 -2 0 -35 17 -71 39 -37 21 -114 63 -172 93 -130 68 -195 104 -331
179 l-106 59 -1556 0 -1557 0 0 -2630z m4240 -1895 c0 -11 11 -15 40 -15 22 0
40 -4 40 -10 0 -5 -18 -10 -40 -10 -22 0 -40 5 -40 10 0 6 -18 10 -40 10 -29
0 -40 4 -40 15 0 11 11 15 40 15 29 0 40 -4 40 -15z m640 -65 c0 -5 -18 -10
-40 -10 -22 0 -40 5 -40 10 0 6 18 10 40 10 22 0 40 -4 40 -10z m-2640 -15 c0
-11 -11 -15 -40 -15 -29 0 -40 4 -40 15 0 11 11 15 40 15 29 0 40 -4 40 -15z
m-17 -42 c-13 -2 -33 -2 -45 0 -13 2 -3 4 22 4 25 0 35 -2 23 -4z m2880 0
c-13 -2 -33 -2 -45 0 -13 2 -3 4 22 4 25 0 35 -2 23 -4z m-3906 -85 c-3 -8 -6
-5 -6 6 -1 11 2 17 5 13 3 -3 4 -12 1 -19z m5363 -114 c0 -11 -5 -14 -16 -10
-9 3 -18 6 -20 6 -3 0 -2 5 1 10 10 16 35 12 35 -6z m233 -31 c-7 -2 -19 -2
-25 0 -7 3 -2 5 12 5 14 0 19 -2 13 -5z m-5930 -130 c-13 -2 -35 -2 -50 0 -16
2 -5 4 22 4 28 0 40 -2 28 -4z m-405 -30 c-10 -2 -26 -2 -35 0 -10 3 -2 5 17
5 19 0 27 -2 18 -5z m85 0 c-13 -2 -33 -2 -45 0 -13 2 -3 4 22 4 25 0 35 -2
23 -4z m177 -43 l0 -40 -40 0 -40 0 0 40 0 40 40 0 40 0 0 -40z m7163 -67 c-7
-2 -19 -2 -25 0 -7 3 -2 5 12 5 14 0 19 -2 13 -5z m117 -3 c0 -5 -18 -10 -40
-10 -22 0 -40 5 -40 10 0 6 18 10 40 10 22 0 40 -4 40 -10z m1464 -2 c-4 -5 0
-9 7 -7 27 3 40 -1 33 -12 -5 -8 -8 -8 -13 0 -5 8 -13 6 -27 -5 -16 -13 -16
-15 -2 -10 10 3 19 2 22 -2 2 -4 -6 -9 -20 -10 -24 -2 -32 12 -14 23 8 5 8 11
1 19 -8 9 -7 13 4 13 8 0 12 -4 9 -9z m-8894 -13 c0 -11 -11 -15 -47 -13 l-48
1 43 4 c23 2 42 8 42 14 0 5 2 9 5 9 3 0 5 -7 5 -15z m8985 -25 c3 -5 -3 -10
-15 -10 -12 0 -18 5 -15 10 3 6 10 10 15 10 5 0 12 -4 15 -10z m-1532 -17 c-7
-2 -21 -2 -30 0 -10 3 -4 5 12 5 17 0 24 -2 18 -5z m1574 -39 c-3 -3 -12 -4
-19 -1 -8 3 -5 6 6 6 11 1 17 -2 13 -5z m4106 -1031 c-35 -2 -91 -2 -125 0
-35 2 -7 3 62 3 69 0 97 -1 63 -3z m180 -8 c-3 -9 -8 -14 -10 -11 -3 3 -2 9 2
15 9 16 15 13 8 -4z m-1420 -52 c-13 -2 -33 -2 -45 0 -13 2 -3 4 22 4 25 0 35
-2 23 -4z m4634 -255 c-3 -8 -6 -5 -6 6 -1 11 2 17 5 13 3 -3 4 -12 1 -19z
m658 -88 c3 -6 -1 -7 -9 -4 -18 7 -21 14 -7 14 6 0 13 -4 16 -10z m-35 -30 c0
-5 -7 -7 -15 -4 -8 4 -15 8 -15 10 0 2 7 4 15 4 8 0 15 -4 15 -10z m85 -38
c-3 -3 -11 0 -18 7 -9 10 -8 11 6 5 10 -3 15 -9 12 -12z"/>
<path d="M8745 31414 c18 -14 89 -57 170 -104 170 -98 542 -371 734 -539 343
-299 571 -549 822 -905 l34 -48 305 -118 c269 -103 353 -142 720 -328 640
-325 987 -486 1294 -602 135 -50 423 -144 473 -154 15 -3 66 -14 113 -25 218
-49 460 -54 557 -11 65 28 118 85 134 142 14 52 6 161 -14 211 l-15 35 136 -1
c163 -2 235 15 276 64 14 17 26 37 26 45 0 8 2 14 4 14 2 0 68 -31 147 -69 79
-38 223 -103 319 -145 96 -43 189 -83 205 -91 63 -28 342 -143 390 -160 28 -9
64 -23 80 -30 68 -29 312 -106 422 -134 395 -98 549 -33 438 185 -85 168 -262
360 -680 737 l-40 36 22 16 c35 24 45 72 30 132 -29 112 -136 251 -363 473
-249 243 -467 417 -828 659 -157 105 -557 351 -571 351 -2 0 -34 17 -72 39
-144 81 -188 104 -421 221 l-241 120 -2313 0 c-2066 -1 -2311 -3 -2293 -16z"/>
<path d="M21815 31408 c-13 -61 -36 -366 -42 -553 -9 -303 15 -510 68 -605 66
-117 244 -113 492 11 91 46 91 45 -8 -31 -38 -30 -72 -57 -75 -61 -3 -3 -27
-22 -54 -43 -122 -92 -453 -370 -671 -562 -191 -168 -401 -382 -449 -457 -47
-74 -47 -119 -1 -128 64 -11 222 39 472 152 198 89 632 309 826 417 29 16 88
49 132 73 44 23 129 71 189 106 60 35 110 63 112 63 2 0 4 -14 4 -31 0 -41 52
-93 111 -111 48 -14 257 -17 324 -5 83 16 131 25 155 32 14 4 43 11 66 15 79
17 391 124 569 195 761 305 1608 757 2360 1258 173 116 380 260 400 278 5 5
-1025 9 -2483 9 l-2492 0 -5 -22z"/>
<path d="M39215 31410 c-79 -38 -457 -210 -460 -210 -2 0 -47 -21 -102 -46
-54 -25 -168 -78 -253 -116 -203 -92 -219 -99 -323 -147 -90 -41 -117 -49
-117 -32 0 18 -87 136 -139 188 -120 122 -275 193 -417 193 -209 0 -642 -128
-1136 -336 -70 -30 -129 -54 -130 -54 -2 0 -3 55 -3 123 0 211 -43 291 -173
321 -667 151 -1385 145 -2010 -15 -305 -78 -677 -233 -912 -378 -348 -216
-671 -491 -767 -652 -92 -154 -77 -293 44 -421 100 -105 251 -191 453 -258 52
-18 96 -33 98 -35 2 -2 -27 -25 -65 -52 -245 -174 -578 -449 -756 -622 -240
-235 -280 -342 -142 -380 70 -19 256 -9 435 25 14 2 41 7 60 10 19 3 88 18
154 35 65 16 123 29 130 29 6 -1 -38 -21 -99 -46 -60 -24 -119 -49 -130 -54
-11 -5 -103 -45 -205 -88 -680 -292 -1212 -563 -1633 -835 -49 -32 -94 -62
-100 -67 -7 -6 -52 -40 -102 -77 -413 -305 -599 -574 -598 -863 1 -177 70
-326 227 -488 88 -91 209 -190 227 -184 5 1 9 -2 9 -7 0 -15 100 -72 113 -65
7 4 9 4 5 -1 -5 -5 6 -17 22 -27 34 -20 44 -23 35 -8 -3 6 -2 10 4 10 5 0 12
-9 16 -19 3 -11 15 -23 26 -26 15 -5 17 -10 10 -19 -6 -7 -7 -17 -3 -21 4 -5
2 -5 -4 -2 -6 3 -23 -7 -39 -23 l-27 -28 43 -7 c24 -3 487 -4 1029 -3 l985 3
2 54 c1 32 7 57 15 62 10 7 10 9 1 9 -8 0 -5 8 7 20 12 12 18 26 14 32 -4 6
-3 8 4 4 5 -3 24 11 41 32 34 44 187 170 271 224 156 100 231 144 385 228 75
41 533 270 539 270 3 0 42 17 88 38 46 21 119 53 163 71 44 18 88 37 97 42 24
12 37 11 18 -1 -13 -8 -12 -10 3 -10 9 0 17 6 17 13 0 8 11 19 24 25 19 9 23
8 22 -5 0 -9 5 -18 11 -20 17 -6 29 27 14 37 -21 13 75 43 132 42 15 -1 27 2
27 6 0 4 251 7 558 7 519 0 560 1 576 18 10 9 30 17 46 17 16 0 32 5 35 10 4
6 -7 10 -26 10 -18 0 -29 3 -26 6 3 4 33 6 67 5 33 0 60 3 60 8 0 5 11 12 25
15 14 4 25 11 25 16 0 6 18 10 39 10 31 0 38 4 37 18 0 11 6 17 19 18 28 1 95
26 95 36 0 4 18 8 40 8 45 0 54 -19 18 -35 -31 -13 -36 -45 -9 -45 24 0 71 37
71 56 0 6 11 19 25 28 15 10 24 25 24 39 l-2 22 -4 -22 c-4 -19 -11 -23 -45
-23 l-41 0 38 36 c29 27 40 32 47 22 7 -10 11 -9 22 5 8 10 16 13 18 7 3 -10
49 1 91 22 11 5 21 7 24 4 3 -3 15 -1 26 5 14 8 18 8 13 0 -4 -6 -1 -11 7 -11
8 0 17 7 21 15 3 9 17 15 33 14 l28 0 -22 -16 c-13 -8 -23 -18 -23 -22 0 -3
30 -4 67 -3 62 4 69 7 106 43 22 21 46 39 54 39 7 0 13 6 13 13 0 15 61 57 84
57 9 0 14 4 11 10 -6 9 31 23 51 19 35 -6 174 3 174 12 0 16 42 48 63 49 10 0
16 -4 13 -9 -4 -5 4 -7 16 -3 21 5 21 6 2 12 -16 6 -14 10 20 26 30 14 40 16
43 6 3 -8 18 -2 45 19 22 18 52 32 68 33 15 1 26 5 23 10 -10 16 18 23 60 15
23 -4 44 -4 47 1 3 4 40 11 83 15 42 4 77 11 77 15 0 8 64 27 128 37 17 3 32
8 32 12 0 5 12 13 27 20 22 10 24 14 12 22 -10 8 -9 9 8 4 13 -3 37 2 60 15
21 11 43 20 48 20 6 0 30 9 53 20 22 11 56 20 74 21 18 0 42 4 53 9 19 8 19 8
-5 18 -21 9 -16 10 23 5 41 -5 47 -3 47 12 0 10 -8 24 -17 31 -17 13 -17 13 0
14 9 0 17 -4 17 -10 0 -21 69 -10 96 15 26 24 31 25 183 25 110 1 168 5 196
15 22 8 50 15 63 15 12 0 22 5 22 10 0 6 18 10 40 10 22 0 40 4 40 8 0 10 72
36 179 63 80 20 100 21 485 17 411 -5 456 -9 456 -45 0 -7 9 -13 20 -13 11 0
23 -7 26 -15 4 -8 11 -15 16 -15 6 0 21 -11 33 -24 16 -18 36 -26 66 -28 l44
-3 -36 -20 c-20 -11 -65 -35 -100 -54 -35 -18 -129 -71 -209 -116 -80 -45
-181 -101 -225 -125 -84 -44 -107 -60 -88 -60 64 0 397 -42 683 -86 259 -39
237 -36 440 -75 254 -49 250 -48 205 -97 l-25 -27 55 -3 c30 -2 72 2 92 7 22
6 39 7 43 1 3 -5 45 -10 93 -11 48 -1 87 -6 87 -11 0 -6 -7 -8 -15 -4 -8 3
-30 -9 -51 -30 l-37 -34 41 -39 c23 -21 42 -41 42 -44 0 -3 -19 -8 -42 -10
-40 -3 -40 -4 12 -6 30 -1 49 -5 43 -8 -7 -2 -13 -16 -13 -29 0 -13 -4 -24
-10 -24 -5 0 -10 -7 -10 -15 0 -19 43 -20 59 -1 9 11 9 15 -1 18 -7 3 2 7 20
10 18 2 35 1 38 -4 3 -4 -1 -8 -8 -8 -16 0 -41 -37 -33 -50 4 -7 439 -15 615
-12 14 0 28 -5 32 -11 5 -8 14 -7 33 1 24 11 33 9 69 -12 46 -27 94 -74 64
-63 -10 3 -20 1 -24 -5 -5 -7 2 -9 22 -5 25 4 35 -1 70 -40 91 -99 117 -219
75 -346 -34 -101 -160 -256 -275 -337 -12 -8 -30 -23 -41 -33 -11 -10 -65 -48
-120 -84 -112 -74 -130 -87 -100 -78 15 5 17 4 6 -3 -8 -6 -20 -8 -28 -5 -7 3
-13 0 -13 -7 0 -6 -4 -8 -10 -5 -5 3 -10 1 -10 -4 0 -6 -4 -11 -10 -11 -5 0
-51 -23 -102 -51 -85 -47 -127 -81 -128 -103 0 -6 6 -2 13 7 10 15 31 18 124
20 66 1 108 -2 103 -7 -5 -5 -49 -9 -97 -9 l-88 0 90 -6 c74 -6 93 -4 105 8
26 26 58 42 65 31 3 -6 14 -10 23 -10 13 0 14 2 3 9 -9 6 -10 11 -2 15 6 4 11
2 11 -5 0 -9 3 -9 14 0 10 8 16 9 21 1 3 -5 15 -10 26 -10 13 0 18 4 13 12 -4
7 -3 8 4 4 6 -4 22 -1 34 6 13 7 26 11 31 10 4 -1 7 3 7 9 0 5 5 7 10 4 6 -3
16 -3 23 2 6 4 14 8 17 9 3 0 16 6 30 12 18 8 20 11 8 11 -10 1 -18 5 -18 11
0 6 9 6 23 1 24 -9 67 5 80 27 6 9 12 10 21 3 15 -13 131 30 119 44 -5 4 -2 5
5 1 27 -16 1024 394 1522 626 93 43 469 231 540 270 338 185 527 314 671 457
111 112 149 178 149 262 0 67 -27 104 -107 146 -66 34 -189 76 -278 94 -52 10
-274 6 -294 -5 -3 -2 -31 -7 -61 -10 -30 -4 -82 -11 -115 -16 -33 -5 -78 -12
-100 -15 -22 -3 -51 -7 -65 -10 -14 -3 -88 -17 -165 -31 -77 -13 -153 -29
-170 -35 -51 -17 -13 10 140 101 336 199 885 557 1160 758 240 175 694 536
973 774 57 48 107 88 111 88 4 0 54 -7 112 -16 132 -21 477 -24 602 -6 121 18
261 54 360 94 l84 34 53 -18 c179 -61 479 -83 730 -54 404 47 813 209 1219
480 207 139 1220 880 1251 916 6 7 181 143 315 245 50 38 92 72 95 75 3 3 84
69 180 145 96 77 193 155 215 175 22 19 56 47 75 62 l35 28 -5970 -1 c-5845 0
-5971 0 -6010 -19z m-1348 -3736 c-3 -3 -12 -4 -19 -1 -8 3 -5 6 6 6 11 1 17
-2 13 -5z m-987 -264 c0 -22 -7 -25 -29 -11 -16 10 -6 31 15 31 8 0 14 -9 14
-20z m-283 -136 c6 -17 -29 -27 -38 -12 -7 10 -12 11 -29 1 -11 -7 -32 -13
-47 -13 -20 0 -24 3 -14 9 12 8 12 10 0 13 -8 3 -2 3 13 1 14 -2 29 1 33 7 9
14 77 9 82 -6z m4232 -133 c9 -6 10 -11 2 -15 -13 -8 -31 1 -31 15 0 11 11 11
29 0z m162 -78 c-8 -15 -10 -15 -11 -2 0 17 10 32 18 25 2 -3 -1 -13 -7 -23z
m-4956 -53 c-3 -5 -12 -10 -18 -10 -7 0 -6 4 3 10 19 12 23 12 15 0z m-4698
-156 c-3 -3 -12 -4 -19 -1 -8 3 -5 6 6 6 11 1 17 -2 13 -5z m2603 -4 c0 -5 -4
-10 -10 -10 -5 0 -10 5 -10 10 0 6 5 10 10 10 6 0 10 -4 10 -10z m-21 -46 c3
-3 -6 -3 -22 1 -15 4 -33 3 -40 -2 -10 -9 -243 -29 -437 -37 -36 -2 -130 -8
-210 -14 -201 -15 -892 -34 -1014 -28 -56 3 -176 8 -268 12 -168 6 -168 6
-168 30 0 22 -2 23 -92 23 -62 0 -88 -3 -78 -9 8 -5 32 -10 53 -10 20 0 37 -5
37 -11 0 -11 -72 -7 -195 12 -33 4 -78 11 -100 14 -22 3 -51 8 -65 11 -20 5
-22 7 -8 13 22 8 2599 4 2607 -5z m-3475 -1014 c-6 -6 -10 -3 -10 10 0 13 4
16 10 10 7 -7 7 -13 0 -20z m2054 -5 c-3 -3 -9 2 -12 12 -6 14 -5 15 5 6 7 -7
10 -15 7 -18z m9304 3 c-7 -7 -12 -8 -12 -2 0 14 12 26 19 19 2 -3 -1 -11 -7
-17z m108 18 c0 -3 -4 -8 -10 -11 -5 -3 -10 -1 -10 4 0 6 5 11 10 11 6 0 10
-2 10 -4z m-120 -40 c0 -3 -4 -8 -10 -11 -5 -3 -10 -1 -10 4 0 6 5 11 10 11 6
0 10 -2 10 -4z m-11250 -31 c7 -9 8 -15 2 -15 -5 0 -12 7 -16 15 -3 8 -4 15
-2 15 2 0 9 -7 16 -15z m11113 -9 c4 -11 1 -13 -10 -9 -11 4 -14 2 -9 -5 5 -8
0 -12 -13 -12 -20 0 -20 1 -3 19 21 24 28 25 35 7z"/>
<path d="M31533 26783 c9 -2 23 -2 30 0 6 3 -1 5 -18 5 -16 0 -22 -2 -12 -5z"/>
<path d="M31923 26770 c-2 -20 4 -20 478 -20 468 0 479 0 479 19 0 19 -8 20
-160 20 -100 1 -160 -3 -160 -9 0 -6 -74 -10 -200 -10 -127 0 -200 4 -200 10
0 6 -46 10 -118 10 -111 0 -118 -1 -119 -20z"/>
<path d="M33040 26770 c0 -17 7 -20 40 -20 22 0 40 5 40 10 0 6 45 10 113 11
61 0 132 4 157 8 30 6 -21 9 -152 9 -191 1 -198 1 -198 -18z"/>
<path d="M54512 31419 c2 -6 8 -10 13 -10 5 0 11 4 13 10 2 6 -4 11 -13 11 -9
0 -15 -5 -13 -11z"/>
<path d="M54562 31388 c2 -46 3 -47 27 -41 37 9 38 11 9 36 -14 12 -28 29 -32
37 -3 8 -4 -6 -4 -32z"/>
<path d="M54640 31275 c0 -21 5 -25 30 -25 26 0 30 -4 30 -28 0 -36 5 -40 35
-35 25 5 25 33 -1 33 -8 0 -14 5 -14 11 0 14 -25 39 -39 39 -6 0 -11 4 -11 9
0 5 -7 11 -15 15 -11 4 -15 -1 -15 -19z"/>
<path d="M54876 31261 c-4 -5 3 -7 14 -4 23 6 26 13 6 13 -8 0 -17 -4 -20 -9z"/>
<path d="M54838 31229 c-22 -23 -23 -33 -3 -25 8 3 15 2 15 -3 0 -12 -78 -33
-92 -25 -7 5 -8 3 -3 -6 6 -10 4 -12 -8 -7 -10 4 -17 2 -17 -4 0 -6 -7 -9 -15
-5 -8 3 -15 2 -15 -3 0 -8 -144 -56 -156 -52 -4 2 -10 -2 -13 -7 -3 -6 -19
-14 -35 -18 -22 -5 -27 -4 -21 6 5 9 4 11 -4 6 -6 -4 -9 -12 -6 -17 6 -8 -11
-13 -42 -12 -7 1 -13 -3 -13 -8 0 -5 -3 -8 -7 -7 -5 1 -19 -4 -33 -10 -14 -6
-140 -55 -280 -108 -1197 -454 -2172 -958 -2750 -1420 -454 -363 -699 -731
-700 -1053 l-1 -86 -102 -67 c-99 -64 -148 -98 -437 -296 -74 -51 -216 -148
-315 -216 -99 -67 -299 -204 -445 -304 -145 -100 -265 -180 -266 -179 -1 1 4
27 12 56 46 178 55 432 20 546 -23 74 -76 156 -121 186 -101 69 -251 72 -445
9 -337 -109 -621 -281 -846 -512 -156 -159 -240 -294 -264 -417 -20 -105 25
-179 133 -219 114 -43 193 -54 445 -59 l243 -5 -58 -32 c-55 -31 -211 -113
-420 -222 l-93 -48 -23 22 c-63 59 -188 90 -306 76 -36 -4 -68 -8 -71 -9 -3
-1 -21 -5 -40 -9 -83 -18 -192 -59 -264 -101 -43 -24 -83 -42 -88 -38 -23 14
-134 1 -207 -23 -259 -88 -455 -205 -611 -363 -123 -124 -200 -259 -200 -350
0 -36 -2 -39 -47 -56 -69 -26 -248 -116 -393 -198 -145 -82 -258 -160 -385
-262 -89 -73 -234 -214 -205 -201 8 4 6 0 -5 -9 -17 -14 -18 -17 -5 -26 12 -8
11 -9 -5 -5 -14 4 -26 -1 -37 -17 -61 -81 -87 -122 -80 -129 9 -9 1759 -11
1773 -2 5 3 9 2 9 -3 0 -4 13 -8 29 -8 16 -1 27 3 25 7 -3 5 -10 6 -15 3 -8
-6 -13 9 -10 28 1 5 -3 6 -8 3 -5 -4 -12 15 -16 41 -3 27 -8 56 -10 66 -2 9 1
17 7 17 5 0 6 10 3 21 -5 14 -3 19 3 15 6 -3 14 3 17 15 7 23 81 117 129 165
26 25 138 122 171 147 5 4 33 24 60 45 28 21 86 63 130 93 44 30 82 56 85 59
14 15 565 360 575 360 1 0 38 20 81 45 l79 45 3588 0 c3580 0 3587 0 3587 20
0 20 -7 20 -3510 20 -2333 0 -3510 -3 -3510 -10 0 -5 -7 -10 -15 -10 -8 0 -15
5 -15 11 0 7 -8 9 -20 5 -57 -18 -61 -15 -18 13 52 33 67 39 49 18 -6 -8 -8
-17 -4 -20 11 -12 23 -8 23 8 0 13 397 15 3510 15 3112 0 3510 2 3510 15 0 13
-390 15 -3422 18 l-3423 2 3423 3 3422 2 0 2541 0 2541 -27 -7 c-16 -4 -35 -9
-43 -10 -8 -2 -16 -4 -17 -5 -2 -2 -7 -3 -12 -4 -5 0 -13 -4 -17 -8 -18 -19
-25 -6 -8 15 10 12 12 16 4 10 -19 -17 -31 -16 -24 2 8 19 3 18 -18 -6z
m-6733 -5077 c-3 -3 -11 0 -18 7 -9 10 -8 11 6 5 10 -3 15 -9 12 -12z m-3307
-1187 c-3 -3 -15 -8 -28 -10 -22 -4 -22 -4 -4 16 12 13 21 16 28 9 5 -5 7 -12
4 -15z m-35 -66 c5 -4 -4 -6 -21 -6 -17 1 -28 5 -25 10 2 4 9 5 14 2 5 -4 9 2
10 12 0 14 2 15 6 3 3 -8 10 -18 16 -21z"/>
<path d="M54577 31129 c7 -7 15 -10 18 -7 3 3 -2 9 -12 12 -14 6 -15 5 -6 -5z"/>
<path d="M38898 27833 c12 -2 32 -2 45 0 12 2 2 4 -23 4 -25 0 -35 -2 -22 -4z"/>
<path d="M39080 27790 c-25 -4 9 -5 75 -2 66 3 122 6 124 8 7 7 -152 1 -199
-6z"/>
<path d="M37495 27501 c-25 -5 -27 -8 -12 -14 27 -10 34 -9 41 8 3 8 4 14 3
14 -1 -1 -15 -4 -32 -8z"/>
<path d="M36240 27100 c0 -5 5 -10 10 -10 6 0 10 5 10 10 0 6 -4 10 -10 10 -5
0 -10 -4 -10 -10z"/>
<path d="M40856 27067 c-22 -32 -19 -41 7 -22 10 7 17 22 15 32 -3 15 -6 14
-22 -10z"/>
<path d="M40773 26988 c-25 -12 -38 -58 -16 -58 7 0 23 6 36 13 61 34 43 76
-20 45z"/>
<path d="M35887 26956 c-6 -15 19 -30 33 -21 13 8 1 35 -15 35 -7 0 -15 -6
-18 -14z"/>
<path d="M40860 26960 c0 -5 9 -10 21 -10 11 0 17 5 14 10 -3 6 -13 10 -21 10
-8 0 -14 -4 -14 -10z"/>
<path d="M3520 26900 l-165 -6 203 -2 c129 -1 202 2 202 8 0 6 -17 9 -37 8
-21 -1 -112 -5 -203 -8z"/>
<path d="M35808 26883 c7 -3 16 -2 19 1 4 3 -2 6 -13 5 -11 0 -14 -3 -6 -6z"/>
<path d="M35868 26883 c12 -2 30 -2 40 0 9 3 -1 5 -23 4 -22 0 -30 -2 -17 -4z"/>
<path d="M40728 26883 c7 -3 16 -2 19 1 4 3 -2 6 -13 5 -11 0 -14 -3 -6 -6z"/>
<path d="M40808 26883 c7 -3 16 -2 19 1 4 3 -2 6 -13 5 -11 0 -14 -3 -6 -6z"/>
<path d="M3058 26863 c12 -2 32 -2 45 0 12 2 2 4 -23 4 -25 0 -35 -2 -22 -4z"/>
<path d="M35865 26860 c-3 -5 -1 -10 4 -10 6 0 11 5 11 10 0 6 -2 10 -4 10 -3
0 -8 -4 -11 -10z"/>
<path d="M40808 26853 c6 -2 18 -2 25 0 6 3 1 5 -13 5 -14 0 -19 -2 -12 -5z"/>
<path d="M40808 26813 c6 -2 18 -2 25 0 6 3 1 5 -13 5 -14 0 -19 -2 -12 -5z"/>
<path d="M2640 26780 c0 -5 4 -10 9 -10 6 0 13 5 16 10 3 6 -1 10 -9 10 -9 0
-16 -4 -16 -10z"/>
<path d="M40940 26725 c-10 -12 -10 -15 4 -15 9 0 16 7 16 15 0 8 -2 15 -4 15
-2 0 -9 -7 -16 -15z"/>
<path d="M41760 26720 c0 -5 5 -10 10 -10 6 0 10 5 10 10 0 6 -4 10 -10 10 -5
0 -10 -4 -10 -10z"/>
<path d="M1238 26573 c23 -2 61 -2 85 0 23 2 4 4 -43 4 -47 0 -66 -2 -42 -4z"/>
<path d="M1120 26504 c0 -27 4 -43 10 -39 6 3 10 24 10 46 0 21 -4 39 -10 39
-5 0 -10 -21 -10 -46z"/>
<path d="M1223 26403 c15 -2 39 -2 55 0 15 2 2 4 -28 4 -30 0 -43 -2 -27 -4z"/>
<path d="M1328 26403 c6 -2 18 -2 25 0 6 3 1 5 -13 5 -14 0 -19 -2 -12 -5z"/>
<path d="M6768 26403 c6 -2 18 -2 25 0 6 3 1 5 -13 5 -14 0 -19 -2 -12 -5z"/>
<path d="M6848 26403 c6 -2 18 -2 25 0 6 3 1 5 -13 5 -14 0 -19 -2 -12 -5z"/>
<path d="M7325 26380 c3 -5 13 -10 21 -10 8 0 14 5 14 10 0 6 -9 10 -21 10
-11 0 -17 -4 -14 -10z"/>
<path d="M7406 26374 c-19 -18 -14 -29 14 -37 17 -4 20 0 20 24 0 32 -11 37
-34 13z"/>
<path d="M7200 26330 c0 -6 -8 -10 -17 -11 -35 -1 20 -18 57 -17 22 0 27 2 13
5 -13 2 -23 8 -23 13 0 4 -7 10 -15 14 -8 3 -15 1 -15 -4z"/>
<path d="M7485 26300 c-4 -6 17 -10 57 -9 50 1 57 3 33 9 -44 11 -83 11 -90 0z"/>
<path d="M7520 26270 c0 -5 18 -10 40 -10 22 0 40 5 40 10 0 6 -18 10 -40 10
-22 0 -40 -4 -40 -10z"/>
<path d="M8160 26140 c0 -5 -8 -10 -17 -10 -15 0 -16 -2 -3 -10 10 -6 16 -6
18 0 2 6 16 10 30 10 15 0 34 5 42 10 11 7 4 10 -27 10 -24 0 -43 -4 -43 -10z"/>
<path d="M9726 26096 c6 -17 34 -30 34 -16 0 5 -9 14 -20 20 -16 8 -18 8 -14
-4z"/>
<path d="M8200 26090 c20 -13 40 -13 40 0 0 6 -12 10 -27 10 -22 0 -25 -2 -13
-10z"/>
<path d="M9686 26092 c-3 -5 1 -9 9 -9 8 0 15 4 15 9 0 4 -4 8 -9 8 -6 0 -12
-4 -15 -8z"/>
<path d="M9850 26039 c0 -5 5 -7 10 -4 6 3 10 8 10 11 0 2 -4 4 -10 4 -5 0
-10 -5 -10 -11z"/>
<path d="M90 25666 c0 -2 8 -10 18 -17 15 -13 16 -12 3 4 -13 16 -21 21 -21
13z"/>
<path d="M41505 25649 c-9 -14 -2 -20 14 -10 8 6 9 11 3 15 -6 3 -14 1 -17 -5z"/>
<path d="M130 25636 c0 -25 995 -766 1019 -759 3 1 10 -5 14 -13 4 -8 15 -14
22 -14 8 0 15 -4 15 -10 0 -5 4 -10 10 -10 5 0 7 8 4 18 -5 14 -4 14 4 2 6 -8
9 -17 6 -21 -2 -4 0 -10 6 -14 5 -3 10 0 10 7 0 7 6 2 13 -11 6 -13 16 -23 21
-22 5 2 12 -3 16 -9 5 -7 16 -9 29 -5 19 6 13 12 -45 51 -36 24 -70 44 -75 44
-5 0 -9 3 -9 8 0 4 -55 45 -122 90 -68 46 -143 98 -168 115 -25 18 -90 64
-145 102 -55 38 -104 73 -110 78 -5 4 -44 32 -85 62 -129 94 -192 139 -295
216 -55 41 -107 80 -117 87 -10 7 -18 11 -18 8z"/>
<path d="M30439 25618 c-1 -7 -1 -17 0 -22 1 -4 -9 -6 -23 -2 -20 5 -24 2 -23
-11 1 -17 56 -18 1044 -15 680 1 1043 6 1043 12 0 7 -348 10 -1004 10 -552 0
-1011 3 -1020 6 -8 3 -12 12 -9 20 3 8 2 14 -1 14 -3 0 -7 -6 -7 -12z"/>
<path d="M41096 25615 c-19 -15 -19 -15 5 -13 14 1 26 8 26 15 0 17 -7 16 -31
-2z"/>
<path d="M41419 25613 c-13 -16 -12 -17 4 -4 9 7 17 15 17 17 0 8 -8 3 -21
-13z"/>
<path d="M30978 25613 c276 -2 728 -2 1005 0 276 1 50 2 -503 2 -553 0 -779
-1 -502 -2z"/>
<path d="M41046 25593 c-15 -16 -2 -23 41 -23 27 0 43 4 38 9 -13 11 -71 22
-79 14z"/>
<path d="M41177 25583 c-4 -3 -7 -15 -7 -25 0 -10 -4 -18 -10 -18 -5 0 -10 -7
-10 -15 0 -9 8 -6 25 11 22 22 28 24 43 12 15 -12 16 -11 3 5 -8 10 -21 15
-29 12 -12 -4 -13 -3 -2 10 12 14 0 22 -13 8z"/>
<path d="M41225 25580 c3 -5 8 -10 11 -10 2 0 4 5 4 10 0 6 -5 10 -11 10 -5 0
-7 -4 -4 -10z"/>
<path d="M41260 25580 c0 -5 7 -7 15 -4 8 4 15 8 15 10 0 2 -7 4 -15 4 -8 0
-15 -4 -15 -10z"/>
<path d="M41307 25583 c-3 -5 6 -9 20 -10 19 -1 22 1 12 8 -17 11 -26 11 -32
2z"/>
<path d="M30366 25553 c-6 -14 -5 -15 5 -6 7 7 10 15 7 18 -3 3 -9 -2 -12 -12z"/>
<path d="M40950 25540 c0 -5 5 -10 11 -10 5 0 7 5 4 10 -3 6 -8 10 -11 10 -2
0 -4 -4 -4 -10z"/>
<path d="M30383 25525 c0 -8 4 -12 9 -9 5 3 6 10 3 15 -9 13 -12 11 -12 -6z"/>
<path d="M13458 25113 c12 -2 32 -2 45 0 12 2 2 4 -23 4 -25 0 -35 -2 -22 -4z"/>
<path d="M12880 25080 c0 -11 43 -12 115 0 47 7 45 7 -32 9 -50 0 -83 -3 -83
-9z"/>
<path d="M12640 25060 c0 -6 47 -10 122 -10 67 0 119 2 117 4 -11 9 -239 15
-239 6z"/>
<path d="M48328 24943 c-16 -2 -28 -8 -28 -12 0 -5 -12 -6 -26 -3 -21 4 -25 2
-19 -8 6 -10 4 -12 -9 -7 -15 6 -56 2 -206 -23 l-45 -7 40 -3 c22 -1 54 -4 70
-5 17 -1 38 2 47 6 20 11 85 0 67 -11 -7 -5 -2 -7 14 -7 14 1 23 5 20 10 -2 4
7 7 21 7 14 0 34 8 44 18 9 9 22 17 27 18 23 3 55 17 55 25 0 9 -22 10 -72 2z"/>
<path d="M47820 24840 c0 -5 5 -10 11 -10 5 0 7 5 4 10 -3 6 -8 10 -11 10 -2
0 -4 -4 -4 -10z"/>
<path d="M48108 24843 c8 -3 5 -10 -10 -22 -14 -12 -18 -20 -10 -25 7 -4 12
-1 12 8 0 8 13 17 30 21 39 9 38 20 -3 22 -17 0 -26 -1 -19 -4z"/>
<path d="M44677 24805 c2 -26 -2 -37 -19 -49 -12 -9 -17 -16 -10 -16 23 0 41
26 40 59 -1 17 -4 34 -8 36 -4 2 -5 -11 -3 -30z"/>
<path d="M47743 24833 c9 -2 23 -2 30 0 6 3 -1 5 -18 5 -16 0 -22 -2 -12 -5z"/>
<path d="M46700 24816 c0 -2 7 -9 15 -16 13 -11 14 -10 9 4 -5 14 -24 23 -24
12z"/>
<path d="M47555 24810 c28 -12 45 -12 45 0 0 6 -15 10 -32 9 -28 0 -30 -2 -13
-9z"/>
<path d="M47270 24800 c-13 -8 -12 -10 3 -10 9 0 17 5 17 10 0 12 -1 12 -20 0z"/>
<path d="M47350 24800 c8 -5 24 -10 34 -10 26 0 18 6 -19 14 -22 5 -26 4 -15
-4z"/>
<path d="M47435 24800 c-3 -6 1 -7 9 -4 18 7 21 14 7 14 -6 0 -13 -4 -16 -10z"/>
<path d="M46808 24793 c7 -3 16 -2 19 1 4 3 -2 6 -13 5 -11 0 -14 -3 -6 -6z"/>
<path d="M46858 24793 c7 -3 16 -2 19 1 4 3 -2 6 -13 5 -11 0 -14 -3 -6 -6z"/>
<path d="M47788 24793 c7 -3 16 -2 19 1 4 3 -2 6 -13 5 -11 0 -14 -3 -6 -6z"/>
<path d="M1340 24745 c13 -14 25 -23 27 -21 2 2 16 -7 30 -20 15 -14 33 -22
40 -20 7 3 12 2 12 -2 -3 -19 2 -26 10 -13 7 10 13 11 31 1 16 -9 21 -9 15 0
-4 6 -17 15 -28 21 -32 13 -60 32 -74 49 -10 12 -12 12 -13 1 0 -11 -3 -11
-15 -1 -8 7 -12 16 -9 21 3 5 -7 9 -22 9 l-27 0 23 -25z"/>
<path d="M47935 24740 c-3 -6 1 -7 9 -4 18 7 21 14 7 14 -6 0 -13 -4 -16 -10z"/>
<path d="M17281 24614 c5 -6 6 -14 2 -17 -3 -4 -2 -7 3 -7 5 0 17 9 26 20 16
18 16 19 -12 17 -19 -1 -25 -6 -19 -13z"/>
<path d="M1597 24603 c-3 -5 -1 -17 3 -27 6 -17 7 -18 13 -3 3 9 2 17 -4 17
-6 0 -7 5 -4 10 3 6 4 10 1 10 -3 0 -7 -3 -9 -7z"/>
<path d="M17866 24571 c-4 -5 -2 -12 3 -15 5 -4 12 -2 15 3 4 5 2 12 -3 15 -5
4 -12 2 -15 -3z"/>
<path d="M1656 24528 c3 -5 10 -6 15 -3 13 9 11 12 -6 12 -8 0 -12 -4 -9 -9z"/>
<path d="M9941 12820 c-7 -30 -145 -525 -307 -1100 -209 -743 -294 -1060 -294
-1096 0 -28 20 -334 44 -680 25 -346 51 -729 57 -852 l13 -223 -59 -178 -59
-179 58 -162 c32 -88 56 -163 55 -164 -2 -2 -85 59 -184 135 -99 77 -196 150
-215 164 -30 21 -67 29 -245 55 -115 17 -212 34 -216 38 -4 4 -177 264 -384
577 l-378 570 26 285 c14 157 24 286 23 287 -1 1 -155 -226 -343 -505 l-340
-507 -157 -950 c-86 -522 -158 -963 -160 -980 -3 -16 -10 -61 -16 -100 l-11
-70 226 -529 c124 -291 225 -530 225 -531 0 -2 -170 -140 -377 -308 l-378
-306 -189 -923 c-104 -508 -191 -929 -194 -936 -4 -11 -537 -12 -3083 -6
l-3079 7 0 -1327 0 -1326 48 0 c83 1 3633 -80 3992 -90 314 -10 2363 -60 2436
-60 l30 0 19 -151 18 -151 220 -274 220 -274 2098 0 2097 0 6 58 c3 31 15 187
26 347 11 160 25 300 30 313 9 21 16 22 103 22 52 0 155 -3 229 -6 l136 -7 72
-363 73 -364 143 0 143 0 5 33 c15 88 56 412 61 482 3 44 8 108 11 143 l6 62
-214 2 -213 2 195 7 c107 4 294 10 415 13 731 21 1534 47 1680 56 202 11 394
18 685 25 406 10 1200 45 1460 65 129 11 176 18 168 25 -22 23 -861 79 -1548
105 -151 6 -306 13 -345 16 -38 3 -124 7 -190 9 -66 2 -127 6 -135 8 -8 3 -98
12 -199 20 -101 9 -186 18 -189 21 -2 3 13 26 34 52 76 90 130 80 -453 87
-285 4 -611 7 -725 7 l-208 0 0 -99 c0 -81 -3 -100 -16 -105 -9 -3 -54 -6
-100 -6 l-85 0 7 105 7 105 -89 0 c-156 0 -376 42 -508 96 -33 14 -69 27 -79
29 -10 2 -33 13 -50 24 -138 86 -134 84 -267 92 -118 7 -729 23 -1435 38
l-320 6 475 8 c604 10 1262 25 1454 33 171 7 176 16 31 58 -78 23 -99 25 -770
40 -1032 25 -1694 49 -1766 66 l-34 7 30 13 c46 19 224 47 375 59 383 30 682
36 1822 36 l1166 0 6 39 c4 22 3 42 -1 46 -4 4 -53 21 -108 38 -114 35 -195
46 -720 97 -203 20 -464 47 -580 60 -115 14 -345 38 -510 55 l-300 31 -865 4
c-476 2 -1025 7 -1220 10 l-355 5 55 -19 c30 -10 102 -33 160 -51 58 -17 109
-36 115 -41 12 -12 -231 -11 -685 1 -619 16 -1058 34 -1193 46 -73 7 -85 23
-26 36 60 13 409 47 492 48 20 0 37 4 37 9 0 5 -78 12 -172 15 -95 4 -191 9
-213 12 -22 2 -62 6 -90 8 -157 14 -342 49 -389 73 -27 14 -28 17 -12 28 47
35 255 45 981 51 374 2 714 7 755 11 l75 6 -70 22 c-119 38 -457 104 -760 147
-142 20 -195 22 -1013 25 -758 4 -873 2 -940 -12 -42 -8 -129 -21 -194 -27
-101 -10 -133 -10 -235 5 -96 15 -427 84 -558 117 -16 4 254 7 600 5 515 -2
662 -5 805 -20 223 -22 219 -22 1610 65 619 39 1235 75 1370 80 321 13 1396
13 2015 0 796 -16 1923 -49 1945 -57 24 -9 -16 -18 -445 -104 -219 -44 -401
-82 -404 -84 -2 -3 20 -5 50 -5 30 0 272 -11 539 -25 267 -14 490 -25 496 -25
6 0 9 13 6 31 -3 22 -1 30 7 25 6 -4 11 -1 11 9 0 9 -5 13 -11 10 -15 -10 31
78 50 93 9 8 10 11 3 7 -7 -4 -2 17 13 51 14 31 25 58 25 61 0 2 5 1 12 -3 6
-4 8 -3 5 3 -8 12 22 93 35 93 12 0 10 -24 -4 -39 -11 -11 -10 -12 0 -7 10 6
12 -17 11 -108 0 -64 -4 -118 -8 -120 -6 -4 -4 -107 2 -112 1 -1 137 -9 302
-18 669 -37 1147 -72 1268 -92 l37 -7 0 1077 0 1076 -40 402 -40 403 0 765 -1
765 -89 65 -89 65 0 335 -1 335 -57 410 c-31 226 -58 411 -59 413 -7 11 -74
-47 -78 -68 -3 -14 -33 -232 -66 -485 -33 -253 -75 -539 -94 -635 -30 -158
-34 -171 -40 -130 -3 25 -44 466 -91 980 l-85 935 0 504 0 504 91 311 c108
371 137 471 150 510 5 16 8 30 7 32 -2 1 -55 -86 -118 -194 -109 -188 -237
-399 -340 -562 -44 -70 -65 -117 -75 -169 -4 -21 -14 -57 -41 -136 -13 -39
-285 -968 -339 -1157 l-28 -98 -56 32 c-31 18 -114 67 -185 110 -70 44 -130
78 -131 76 -8 -7 26 -205 68 -403 74 -345 70 -294 64 -911 l-5 -559 79 -1395
c90 -1607 95 -1719 81 -1705 -5 6 -41 54 -79 107 l-69 97 -72 718 -72 718 -85
410 c-47 226 -88 418 -93 428 -9 23 -324 359 -330 353 -2 -3 8 -128 22 -278
l27 -273 56 -177 57 -178 -127 -412 c-71 -227 -140 -452 -155 -500 l-27 -87
-110 191 c-60 104 -117 202 -125 216 -8 15 -29 52 -47 83 -34 60 -34 63 -139
1014 -14 127 -29 239 -35 250 -5 11 -54 139 -108 285 -99 262 -104 272 -435
900 l-336 634 0 700 0 700 -125 119 -125 119 -2 1396 c-3 1202 -5 1389 -17
1342z m629 -9255 c162 -8 365 -17 450 -20 176 -7 272 -12 415 -20 55 -3 150
-8 210 -10 275 -11 373 -16 410 -20 22 -2 145 -7 274 -11 505 -14 352 -23
-344 -19 -1446 9 -2697 30 -2625 46 44 9 379 47 520 58 166 13 372 12 690 -4z
m-2950 -38 c0 -4 -21 -21 -47 -38 -90 -56 -114 -59 -482 -57 -191 0 -304 4
-261 8 50 4 98 16 145 37 100 43 107 46 140 50 17 3 32 7 34 9 8 8 471 -1 471
-9z m5839 -47 c107 -38 32 -67 -131 -50 -186 18 -202 29 -80 53 94 19 153 18
211 -3z m-11069 -40 c433 -27 1015 -76 1193 -101 93 -14 101 -31 25 -54 -130
-37 -233 -46 -658 -56 -544 -13 -569 -12 -690 33 -160 61 -207 66 -580 70
-184 1 -558 -1 -830 -5 -363 -6 -490 -5 -478 3 37 23 371 53 1048 95 416 25
722 30 970 15z m3660 -281 c25 -5 56 -17 69 -26 23 -15 24 -16 6 -29 -23 -17
-109 -18 -225 -3 -109 13 -128 23 -71 39 113 30 156 34 221 19z m-955 -63
c165 -14 332 -29 370 -33 69 -8 67 -8 -65 -14 -205 -10 -1713 -10 -1728 0 -9
5 -1 10 25 14 51 8 383 45 508 56 162 15 562 5 890 -23z m4978 -1132 c55 -19
60 -39 14 -52 -49 -14 -307 10 -307 27 0 13 122 39 186 40 33 1 81 -6 107 -15z
m-4603 -213 c58 -7 114 -14 124 -17 19 -6 19 -7 0 -18 -44 -26 -1551 -12
-1578 15 -6 5 12 9 50 10 32 0 151 7 264 14 241 16 978 13 1140 -4z m6155
-608 c10 -54 20 -104 22 -110 4 -10 -29 -13 -145 -13 l-150 0 35 92 c52 138
41 128 137 128 l82 0 19 -97z"/>
<path d="M10895 12203 c10 -69 25 -184 32 -248 4 -38 8 -74 8 -80 1 -5 5 -41
9 -80 4 -38 9 -86 12 -105 2 -19 9 -91 15 -160 l11 -125 127 -240 128 -240 87
-640 c47 -352 91 -653 95 -670 9 -27 9 -27 5 10 -2 22 -23 339 -46 705 l-41
665 18 383 18 384 -194 194 c-107 108 -215 213 -241 236 l-48 40 5 -29z"/>
<path d="M14120 8459 l1 -554 50 -34 c27 -19 51 -32 53 -30 2 2 11 103 20 223
9 121 18 221 20 223 2 2 75 -70 161 -161 149 -155 162 -173 227 -293 38 -70
68 -121 65 -113 -12 39 -450 1157 -458 1170 -7 10 -8 -1 -5 -35 13 -127 17
-215 11 -215 -20 0 -76 44 -80 63 -3 12 -16 85 -30 161 -14 77 -27 142 -30
144 -3 3 -5 -244 -5 -549z"/>
<path d="M17371 5578 c-50 -79 -132 -207 -183 -285 -51 -79 -174 -268 -272
-420 l-179 -278 15 -230 15 -230 -84 -235 c-46 -129 -86 -241 -88 -247 -4 -10
-177 -13 -821 -13 l-817 0 7 -77 c4 -42 3 -79 -2 -82 -8 -6 -63 -874 -62 -993
l0 -58 105 0 c58 0 105 -4 105 -9 0 -14 -25 -20 -123 -31 -50 -6 -92 -12 -93
-13 -1 -1 -4 -46 -6 -100 -4 -67 -2 -97 6 -97 6 0 175 -7 376 -15 201 -8 428
-17 505 -20 77 -3 185 -8 240 -10 55 -2 186 -7 290 -10 226 -8 170 -5 1065
-44 393 -17 796 -36 895 -42 133 -8 377 -8 935 1 817 14 1293 11 1311 -7 7 -7
7 -13 1 -17 -22 -14 -487 -56 -892 -81 -52 -3 -117 -8 -145 -10 -91 -8 -537
-35 -659 -40 -67 -3 -229 -12 -361 -20 -132 -8 -555 -33 -940 -55 -385 -22
-743 -43 -795 -46 -153 -10 -180 -11 -270 -13 -98 -3 -85 -15 26 -25 38 -4 85
-9 104 -11 19 -2 58 -7 85 -10 28 -3 154 -19 280 -34 274 -35 457 -39 1995
-46 536 -3 986 -7 1000 -10 14 -3 39 -7 55 -10 28 -3 304 -50 350 -59 11 -2
42 -7 68 -10 27 -4 59 -10 70 -12 12 -3 38 -7 57 -9 36 -5 77 -12 120 -20 26
-5 48 -8 205 -28 62 -8 178 -10 375 -5 486 12 1325 38 1770 54 234 9 444 17
468 17 28 1 42 5 42 14 0 11 69 13 368 11 202 -1 419 2 482 6 63 4 149 9 190
11 41 2 113 6 160 9 47 4 148 11 225 16 209 15 258 25 225 45 -15 9 -465 6
-1120 -9 l-555 -12 -21 22 c-12 13 -25 20 -28 17 -3 -4 -6 -1 -6 5 0 7 -4 12
-9 12 -28 0 -112 48 -123 70 -17 32 -28 44 -56 59 -12 7 -20 16 -17 22 4 5 -1
9 -10 9 -9 0 -14 4 -10 9 3 5 1 12 -5 16 -5 3 -10 1 -10 -4 0 -6 -18 -11 -40
-11 -36 0 -40 3 -40 24 0 22 -3 24 -40 19 -40 -6 -58 11 -22 20 9 2 7 3 -6 2
-16 -2 -31 9 -52 35 -21 26 -36 37 -52 35 -13 -1 -15 0 -5 2 23 6 22 20 -3 33
-11 6 -20 21 -21 33 -1 20 -1 20 -10 -4 -9 -25 -13 -26 -57 -21 -40 4 -53 11
-93 53 -38 41 -51 49 -81 49 -27 0 -37 5 -41 20 -3 13 0 20 10 20 8 0 11 -4 8
-10 -3 -6 3 -10 14 -10 14 0 19 5 15 15 -4 9 0 15 10 15 8 0 20 9 26 20 6 12
16 18 23 14 8 -5 8 -3 -1 7 -10 11 -16 11 -33 1 -18 -12 -24 -11 -40 7 -11 12
-25 21 -32 21 -8 0 -7 -4 3 -11 12 -9 12 -10 -3 -5 -10 3 -27 6 -38 6 -10 0
-19 7 -19 15 0 19 -24 19 -44 0 -8 -8 -17 -11 -20 -6 -3 4 -74 9 -158 10 -155
2 -400 16 -450 27 -32 6 -36 18 -10 29 9 4 127 10 262 13 148 3 236 8 222 13
-12 5 -22 13 -22 19 0 6 -5 8 -11 4 -8 -5 -9 -2 -1 12 8 14 6 21 -5 30 -13 9
-13 13 -3 19 8 5 11 4 7 -2 -4 -6 0 -13 8 -17 8 -3 12 -12 9 -20 -4 -10 0 -14
13 -12 10 2 12 1 6 -1 -22 -8 -14 -23 12 -23 14 0 25 4 25 10 0 5 6 8 13 6 6
-1 9 -1 4 1 -4 3 -4 10 -1 15 4 6 2 8 -3 5 -6 -4 -16 0 -23 8 -7 8 -16 13 -20
10 -5 -3 -11 -1 -15 5 -5 9 6 14 26 12 3 -1 6 6 6 14 0 17 -19 18 -35 2 -9 -9
-12 -9 -12 -1 0 7 -9 10 -20 8 -11 -2 -20 0 -20 6 0 5 -7 9 -15 9 -9 0 -18 6
-21 13 -2 7 -21 14 -40 15 -25 2 -34 -1 -28 -9 4 -8 3 -9 -4 -5 -6 4 -9 13 -6
20 4 10 -31 14 -163 20 -177 7 -234 14 -240 32 -4 13 63 26 127 24 72 -2 142
10 137 24 -3 7 6 12 22 13 14 0 18 -1 8 -4 -36 -10 -3 -23 58 -23 58 0 63 2
58 20 -5 20 0 20 203 21 216 0 306 11 180 21 -71 6 -103 21 -76 38 27 17 145
25 358 24 116 0 212 3 212 8 0 4 13 8 28 8 16 0 53 5 83 11 62 12 170 1 177
-18 2 -9 -11 -13 -47 -13 -27 0 -53 -4 -56 -10 -8 -12 -5 -12 108 1 75 8 111
7 197 -6 197 -30 246 -31 865 -18 341 7 682 13 758 14 110 2 137 5 137 16 0 8
-5 11 -11 8 -16 -11 -56 3 -63 21 -6 14 1 16 54 12 33 -2 55 -1 48 4 -7 4 -27
8 -45 8 -41 0 -63 9 -63 25 0 19 -48 15 -53 -4 -3 -9 -5 6 -6 33 l-1 48 36 -7
c34 -6 35 -5 21 9 -8 9 -25 16 -36 16 -11 0 -26 8 -33 19 -13 19 -37 24 -183
39 -59 6 -70 10 -67 25 2 9 -1 17 -6 17 -5 0 -15 14 -22 30 -14 34 -30 40 -30
10 0 -12 -7 -20 -16 -20 -14 0 -14 3 -4 15 10 12 10 15 -1 15 -11 0 -11 2 -2
8 10 7 10 12 -1 27 -10 15 -11 25 -4 39 8 15 7 22 -4 30 -8 6 -18 23 -22 39
-3 15 -11 27 -16 27 -6 0 -10 9 -10 20 0 12 -7 20 -16 20 -9 0 -18 9 -21 20
-3 11 -9 20 -14 20 -5 0 -9 8 -9 18 -1 22 -29 72 -30 52 0 -8 -4 -21 -9 -29
-7 -11 -13 -10 -35 5 -14 11 -26 25 -26 32 0 6 -4 12 -9 12 -5 0 -12 14 -16
30 -5 23 -12 30 -31 30 -16 0 -24 5 -23 18 0 10 3 12 6 5 7 -19 24 -15 21 5
-2 12 4 17 22 18 45 2 50 4 50 19 0 9 -6 15 -12 14 -7 -1 -29 0 -48 1 l-35 2
30 8 c30 8 29 8 -10 11 -22 1 -56 4 -75 6 -90 7 -151 25 -159 47 -8 20 -5 21
68 27 l76 5 -80 2 c-52 2 -75 5 -66 11 10 7 1 11 -30 15 -52 6 -2507 16 -4060
16 l-1086 0 -188 338 -188 337 -685 160 -686 160 -75 63 c-42 35 -87 74 -101
86 -14 12 -51 43 -82 70 -32 27 -58 52 -58 57 0 4 70 162 156 351 195 430 204
448 199 448 -1 0 -44 -64 -94 -142z m630 -1344 c143 -68 234 -106 271 -112 45
-7 72 -21 156 -82 56 -41 100 -76 97 -78 -2 -2 -76 -14 -165 -26 l-162 -23
-276 210 c-152 115 -281 213 -286 217 -5 5 27 6 70 3 74 -6 92 -13 295 -109z
m6494 -754 c12 -5 -1 -6 -35 -3 -30 3 -57 7 -59 9 -9 8 75 2 94 -6z m-715 -39
c18 -5 6 -9 -48 -14 -77 -8 -179 0 -188 14 -6 11 200 10 236 0z m687 -17 c-3
-3 -12 -4 -19 -1 -8 3 -5 6 6 6 11 1 17 -2 13 -5z m-512 -44 c4 -6 -15 -10
-49 -10 -31 0 -56 5 -56 10 0 6 22 10 49 10 28 0 53 -4 56 -10z m-6167 -31
c40 -14 39 -39 0 -50 -44 -12 -298 14 -298 30 0 4 28 13 63 20 34 7 67 15 72
17 18 7 129 -5 163 -17z m5722 11 c0 -5 -20 -10 -45 -10 -25 0 -45 5 -45 10 0
6 20 10 45 10 25 0 45 -4 45 -10z m-905 -90 c105 -5 205 -12 223 -15 35 -6 43
-21 15 -28 -10 -3 12 -5 50 -6 37 0 67 -5 67 -11 0 -6 -33 -10 -80 -10 -44 0
-80 4 -80 9 0 5 -129 11 -287 13 -277 5 -343 12 -343 37 0 21 164 25 435 11z
m1260 -11 c11 -11 -257 -12 -306 -1 -31 6 -29 7 26 12 86 7 268 0 280 -11z
m-502 -20 c-21 -6 -45 -6 -65 0 -29 8 -25 9 32 9 57 0 61 -1 33 -9z m727 -9
c0 -6 -33 -10 -80 -10 -47 0 -80 4 -80 10 0 6 33 10 80 10 47 0 80 -4 80 -10z
m-215 -80 c-3 -5 -28 -10 -55 -10 -27 0 -52 5 -55 10 -4 6 17 10 55 10 38 0
59 -4 55 -10z m-282 -10 c9 0 17 -4 17 -10 0 -13 -157 -13 -165 -1 -6 10 74
20 110 15 11 -2 28 -4 38 -4z m-413 -10 c13 -8 13 -9 0 -14 -27 -8 -365 -18
-357 -9 10 9 194 30 282 31 33 1 67 -2 75 -8z m1028 -44 c11 -10 -23 -13 -180
-14 -214 -1 -318 5 -318 18 0 23 475 18 498 -4z m-862 1 c17 -16 -15 -22 -138
-25 -84 -2 -134 0 -141 7 -8 8 1 11 31 11 24 0 42 5 42 11 0 13 193 9 206 -4z
m1476 -15 c-19 -6 -44 6 -37 18 4 7 14 6 28 -2 14 -7 17 -13 9 -16z m-5242 9
c0 -15 -170 -28 -204 -15 -9 3 -13 10 -10 15 7 12 214 12 214 0z m3290 -11 c0
-6 -33 -10 -80 -10 -47 0 -80 4 -80 10 0 6 33 10 80 10 47 0 80 -4 80 -10z
m-2580 -10 c131 -10 166 -19 139 -36 -22 -13 -404 -17 -531 -6 -117 11 -164
24 -153 43 8 12 374 12 545 -1z m2755 -40 c4 -6 -24 -11 -77 -12 l-83 -1 65
-6 c61 -6 57 -6 -58 -13 -82 -5 -138 -4 -168 3 -64 17 -44 33 32 26 39 -4 64
-2 64 3 0 13 217 13 225 0z m-812 -31 c116 -19 105 -31 -23 -26 -121 5 -331
25 -339 32 -9 10 294 4 362 -6z m-1903 -20 c0 -12 -207 -11 -215 1 -3 5 29 10
82 12 98 3 133 0 133 -13z m1599 5 c67 -14 25 -24 -99 -24 -74 0 -130 4 -130
9 0 17 167 27 229 15z m1815 -3 c7 -11 -53 -21 -136 -21 -63 0 -79 6 -61 23
10 10 191 8 197 -2z m-800 -25 c-7 -18 -40 -23 -185 -32 -99 -6 -120 -4 -140
10 -13 9 -36 16 -51 16 -16 0 -28 5 -28 10 0 6 75 10 205 10 171 0 203 -2 199
-14z m1231 -6 c-72 -12 -135 -12 -135 0 0 6 37 9 93 9 82 -2 87 -2 42 -9z
m-889 -19 c16 -5 124 -12 239 -16 116 -3 233 -10 260 -15 36 -6 -1 -8 -125 -5
-96 3 -283 5 -415 6 -233 1 -238 1 -162 14 43 7 81 16 85 19 9 9 86 7 118 -3z
m-3716 -11 c10 -7 -5 -10 -53 -10 -43 0 -66 4 -62 10 8 13 95 13 115 0z m1880
-20 c0 -6 -35 -10 -87 -9 -59 0 -81 3 -68 9 28 12 155 12 155 0z m-788 -10
c99 0 158 -4 158 -10 0 -6 -110 -10 -312 -9 -172 0 -308 2 -303 5 28 11 159
22 224 18 41 -2 145 -4 233 -4z m1908 0 c-20 -13 -220 -13 -220 0 0 6 46 10
118 10 79 0 112 -3 102 -10z m1560 0 c0 -6 -33 -10 -80 -10 -47 0 -80 4 -80
10 0 6 33 10 80 10 47 0 80 -4 80 -10z m-4662 -30 c33 0 51 -4 47 -10 -7 -11
-242 -14 -294 -4 -17 4 -31 11 -31 17 0 7 38 8 113 4 61 -4 136 -7 165 -7z
m1612 0 c0 -5 -25 -10 -55 -10 -30 0 -55 5 -55 10 0 6 25 10 55 10 30 0 55 -4
55 -10z m2308 4 c40 -4 79 -12 86 -20 8 -7 26 -16 41 -20 19 -5 24 -9 15 -18
-23 -23 -1495 -33 -1605 -11 -22 5 -26 4 -15 -4 24 -17 6 -22 -92 -28 -96 -6
-188 2 -188 16 0 4 13 6 29 3 16 -2 32 1 35 7 4 6 40 12 84 12 42 1 68 3 57 6
-11 2 -30 6 -42 9 -37 7 -27 32 15 39 20 4 44 7 52 9 33 5 1460 5 1528 0z
m-2758 -24 c0 -5 -18 -10 -39 -10 -22 0 -43 5 -46 10 -4 6 12 10 39 10 25 0
46 -4 46 -10z m1090 0 c0 -5 -25 -10 -55 -10 -30 0 -55 5 -55 10 0 6 25 10 55
10 30 0 55 -4 55 -10z m-670 -10 c0 -6 -33 -10 -80 -10 -47 0 -80 4 -80 10 0
6 33 10 80 10 47 0 80 -4 80 -10z m-825 -15 c-78 -22 -175 -18 -175 6 0 5 51
9 113 8 l112 0 -50 -14z m3650 -6 c5 -5 50 -9 99 -9 72 0 87 -2 77 -12 -17
-18 -192 -18 -213 0 -10 8 -61 15 -132 19 -66 3 -116 10 -116 16 0 13 271 0
285 -14z m1305 6 c11 -13 8 -15 -15 -15 -23 0 -26 2 -15 15 7 8 14 15 15 15 1
0 8 -7 15 -15z m-3600 -35 c0 -6 -32 -10 -77 -10 -54 0 -73 3 -63 10 20 13
140 13 140 0z m-643 -30 c34 0 52 -4 48 -10 -7 -11 -164 -13 -268 -3 -108 10
-58 25 62 19 57 -3 128 -6 158 -6z m-442 -20 c14 -6 0 -9 -45 -8 -47 0 -58 2
-40 8 33 11 60 11 85 0z m715 -20 c0 -6 -33 -10 -80 -10 -47 0 -80 4 -80 10 0
6 33 10 80 10 47 0 80 -4 80 -10z m-20 -53 c14 -7 26 -20 28 -30 5 -27 -99
-24 -144 4 -35 21 -40 30 -26 43 9 10 110 -2 142 -17z m-217 -24 c-18 -2 -48
-2 -65 0 -18 2 -4 4 32 4 36 0 50 -2 33 -4z m1221 -18 c3 -9 0 -15 -9 -15 -8
0 -15 4 -15 9 0 5 -10 7 -22 3 -12 -3 -19 -1 -15 4 9 16 55 15 61 -1z m-960
-43 c22 -4 41 -13 44 -21 4 -12 -10 -13 -84 -7 -95 8 -107 12 -84 26 17 11 68
12 124 2z m176 -2 c0 -5 -18 -10 -39 -10 -22 0 -43 5 -46 10 -4 6 12 10 39 10
25 0 46 -4 46 -10z m-877 -6 c75 -13 34 -24 -88 -24 -71 0 -125 4 -125 9 0 17
142 26 213 15z m-1253 -74 c359 -18 419 -25 398 -45 -51 -51 -1200 -36 -1252
16 -48 46 271 57 854 29z m1360 0 c0 -6 42 -10 105 -10 99 0 134 -10 83 -24
-37 -9 -175 -7 -247 5 -105 17 -111 19 -111 29 0 6 36 10 85 10 50 0 85 -4 85
-10z m-230 -10 c-36 -12 -98 -12 -105 0 -4 6 19 10 62 9 49 -1 61 -3 43 -9z
m1302 0 c26 0 48 -4 48 -10 0 -11 -172 -14 -269 -4 -102 11 -49 26 68 20 57
-3 126 -6 153 -6z m-442 -20 c17 -6 4 -8 -45 -8 -52 0 -62 2 -40 8 39 10 54
10 85 0z m720 -20 c0 -6 -33 -10 -80 -10 -47 0 -80 4 -80 10 0 6 33 10 80 10
47 0 80 -4 80 -10z m-848 -16 c60 -3 106 -10 102 -15 -6 -10 -333 -13 -358 -3
-46 18 14 34 104 28 25 -2 93 -6 152 -10z m-5729 -31 c40 -16 44 -22 25 -41
-22 -22 -306 -7 -331 17 -8 8 79 34 143 45 38 6 121 -5 163 -21z m6790 10
c-18 -2 -48 -2 -65 0 -18 2 -4 4 32 4 36 0 50 -2 33 -4z m-450 -40 c-18 -2
-48 -2 -65 0 -18 2 -4 4 32 4 36 0 50 -2 33 -4z m-993 -83 c-20 -13 -137 -13
-145 0 -4 6 24 10 77 10 57 0 78 -3 68 -10z m254 -6 c31 -5 43 -10 34 -15 -26
-17 -208 -6 -208 12 0 10 107 12 174 3z m586 -3 c0 -16 -156 -21 -197 -6 -36
13 -33 14 80 14 64 1 117 -3 117 -8z m-80 -41 c17 -5 -5 -8 -65 -9 -61 0 -85
2 -75 9 18 11 104 11 140 0z m195 0 c-3 -5 -39 -10 -80 -10 -41 0 -77 5 -80
10 -4 6 25 10 80 10 55 0 84 -4 80 -10z m-952 -16 c40 -7 48 -18 20 -28 -34
-14 -351 -18 -489 -8 -146 12 -200 24 -188 43 5 9 89 10 313 5 168 -3 323 -9
344 -12z m320 -1 c-18 -2 -48 -2 -65 0 -18 2 -4 4 32 4 36 0 50 -2 33 -4z
m2083 -441 c-21 -2 -42 0 -47 5 -4 4 13 6 39 3 l47 -5 -39 -3z m77 -19 c-7 -2
-21 -2 -30 0 -10 3 -4 5 12 5 17 0 24 -2 18 -5z m157 -87 c0 -2 -9 -6 -20 -9
-11 -3 -20 -1 -20 4 0 5 9 9 20 9 11 0 20 -2 20 -4z m65 -26 c4 -6 -12 -10
-40 -10 -28 0 -44 4 -40 10 3 6 21 10 40 10 19 0 37 -4 40 -10z"/>
<path d="M45089 3783 c-46 -30 -107 -73 -136 -95 l-52 -40 -2693 -4 c-2381 -4
-3053 -8 -3150 -17 -14 -1 -26 -6 -25 -12 1 -5 -5 -9 -13 -10 -8 0 -25 -6 -36
-12 -12 -7 -24 -9 -28 -5 -4 3 -4 -1 -1 -9 4 -11 -1 -19 -17 -24 l-23 -8 23
-4 c12 -2 22 -10 22 -18 0 -7 8 -16 18 -18 9 -3 -4 -5 -30 -6 -50 -1 -71 -15
-36 -24 17 -5 19 -9 9 -20 -6 -8 -11 -19 -10 -23 6 -36 -27 -47 -51 -18 -13
15 -64 15 -88 0 -6 -3 -13 -3 -16 2 -7 12 -116 13 -116 2 0 -6 5 -10 10 -10 6
0 10 -4 10 -10 0 -5 -13 -7 -30 -4 -16 4 -50 3 -74 0 -35 -6 -44 -11 -39 -23
3 -8 0 -19 -7 -23 -9 -6 -7 -10 9 -15 21 -6 22 -8 6 -26 -10 -10 -15 -25 -11
-35 4 -11 0 -18 -14 -21 -14 -4 -20 -14 -20 -34 0 -27 -3 -29 -40 -29 -29 0
-40 -4 -40 -15 0 -11 -12 -15 -49 -15 -40 0 -53 -5 -80 -30 -17 -17 -31 -35
-31 -41 0 -7 -7 -17 -16 -23 -8 -6 -17 -26 -20 -43 -6 -36 3 -40 73 -34 34 2
43 7 43 22 0 15 7 19 31 19 24 0 30 -4 27 -17 -2 -11 -14 -19 -31 -21 -15 -2
-27 -7 -27 -11 0 -7 -86 -22 -147 -25 -13 0 -23 -5 -23 -9 0 -5 165 -6 368 -3
202 4 507 8 677 11 171 2 469 7 664 11 378 7 364 9 322 -40 -9 -10 -15 -21
-14 -25 2 -3 -11 -11 -28 -16 -17 -6 -36 -17 -43 -25 -13 -18 -87 -15 -98 3
-5 8 -8 7 -8 -3 0 -9 -11 -32 -25 -51 -13 -20 -21 -39 -18 -43 4 -3 0 -6 -8
-6 -11 0 -11 -2 -1 -9 27 -17 -16 -32 -96 -34 -68 -1 -82 -4 -85 -19 -5 -16 2
-18 61 -18 63 1 66 2 42 15 l-25 14 33 1 c20 0 31 -4 27 -10 -3 -6 1 -10 9
-10 9 0 16 -7 16 -15 0 -8 -4 -15 -10 -15 -5 0 -10 -7 -10 -15 0 -8 -4 -15
-10 -15 -5 0 -9 -6 -7 -12 1 -9 -21 -14 -78 -16 -103 -4 -126 -22 -27 -22 40
0 72 -3 72 -7 0 -5 -34 -8 -76 -7 -72 0 -77 -1 -88 -25 -6 -14 -19 -34 -28
-43 -10 -10 -20 -29 -24 -43 -3 -14 -11 -25 -16 -25 -6 0 -8 7 -4 15 3 8 1 15
-4 15 -6 0 -10 -5 -10 -11 0 -5 -5 -7 -11 -4 -6 4 -8 13 -5 21 3 8 0 11 -9 8
-7 -3 -16 -17 -20 -31 -3 -13 -16 -35 -29 -48 -14 -14 -19 -26 -13 -28 6 -2
-3 -10 -20 -17 -18 -8 -29 -19 -26 -27 3 -7 0 -13 -6 -13 -6 0 -11 5 -11 10 0
18 -82 12 -95 -7 -7 -10 -22 -18 -34 -18 -11 0 -20 -4 -18 -10 1 -5 6 -8 12
-6 5 2 41 5 78 7 37 2 72 6 76 8 4 3 8 -1 8 -9 0 -20 -25 -28 -75 -26 -26 2
-53 -4 -67 -13 -13 -9 -37 -16 -53 -16 -15 0 -33 -5 -40 -12 -8 -8 -15 -8 -25
0 -11 10 -22 5 -51 -23 -32 -30 -40 -33 -57 -22 -17 10 -22 9 -32 -4 -7 -9
-19 -18 -27 -22 -8 -3 1 -6 20 -6 19 -1 56 10 82 23 49 25 93 25 84 0 -3 -8 0
-14 6 -14 7 0 6 -5 -2 -15 -7 -8 -19 -15 -26 -15 -8 0 -14 -8 -14 -19 0 -27
-47 -56 -66 -40 -11 9 -14 8 -14 -10 0 -18 -6 -21 -40 -21 -25 0 -40 -5 -40
-12 -1 -8 -6 -5 -15 6 -15 19 -35 14 -35 -10 0 -8 -6 -14 -14 -14 -8 0 -17 -4
-21 -9 -3 -5 10 -8 30 -6 19 2 35 -1 35 -6 0 -5 -18 -9 -40 -9 -26 0 -40 -4
-40 -13 0 -11 -104 -16 -522 -25 -1340 -30 -1844 -43 -1853 -46 -5 -3 33 -5
85 -5 113 -1 105 -15 -14 -27 -77 -8 -79 -9 -36 -15 l45 -6 -56 -1 c-35 -1
-61 -7 -68 -16 -9 -11 -26 -13 -67 -9 -50 5 -54 4 -54 -16 0 -19 -5 -21 -55
-21 -52 0 -105 -15 -105 -31 0 -4 -18 -10 -40 -14 -39 -7 -56 -25 -23 -25 12
0 7 -8 -16 -24 l-32 -24 38 0 c21 0 47 7 57 16 11 10 16 11 12 5 -6 -10 16
-13 96 -12 67 0 96 3 83 9 -15 7 -9 9 25 9 29 1 40 -2 31 -8 -8 -5 412 -11
985 -14 1100 -6 1389 -17 1389 -53 0 -26 -218 -51 -935 -109 -239 -19 -473
-40 -520 -45 -47 -5 -94 -10 -105 -10 -16 -1 -17 -2 -5 -9 22 -13 263 -27
1190 -71 1250 -59 1574 -80 1755 -115 44 -8 98 -17 119 -21 22 -3 128 -24 235
-46 212 -43 206 -41 331 -64 81 -15 100 -19 153 -28 30 -5 307 -41 512 -67
132 -16 484 -71 660 -103 11 -2 38 -7 60 -11 37 -6 182 -32 280 -51 22 -4 47
-9 55 -11 8 -2 40 -8 70 -13 73 -12 110 -19 140 -26 14 -3 34 -8 45 -10 96
-19 140 -28 204 -39 40 -8 75 -15 77 -18 2 -2 -1668 -4 -3712 -4 -2043 -1
-3713 1 -3711 3 3 3 164 45 358 93 369 92 529 138 529 152 0 5 -60 9 -133 9
-143 0 -288 14 -321 32 -28 15 -36 28 -36 60 0 20 14 40 60 80 33 29 60 58 60
64 0 7 -36 19 -87 28 -91 16 -353 53 -388 55 -65 2 -102 7 -115 16 -12 7 -13
6 -3 -6 10 -12 8 -17 -7 -27 -10 -6 -20 -8 -23 -4 -5 9 1 -13 9 -33 5 -11 -1
-15 -20 -15 -16 0 -41 -14 -65 -35 -21 -19 -54 -38 -72 -41 -48 -8 -99 -33
-99 -47 0 -25 -20 19 -20 45 0 15 -5 30 -12 34 -7 4 -8 3 -4 -4 4 -7 -7 -13
-31 -18 -24 -4 -67 -29 -117 -67 -48 -37 -81 -56 -85 -49 -3 6 -28 12 -55 13
-38 2 -51 -1 -62 -16 -11 -15 -11 -21 -2 -26 18 -12 2 -22 -17 -12 -14 8 -39
6 -152 -14 -18 -3 -33 -9 -33 -14 0 -5 -6 -9 -14 -9 -7 0 -19 -6 -25 -14 -6
-7 -24 -16 -39 -19 -25 -5 -123 -72 -130 -89 -2 -5 -10 -8 -18 -8 -8 0 -14 -4
-14 -10 0 -5 -9 -10 -19 -10 -11 0 -23 -5 -26 -10 -3 -6 -19 -10 -34 -10 -16
0 -33 -6 -39 -13 -12 -14 -11 -14 69 -21 20 -2 40 -6 46 -9 5 -3 36 -9 69 -12
117 -12 214 -28 214 -37 0 -7 -380 -12 -597 -8 -40 1 -78 -4 -85 -10 -7 -5
-24 -19 -36 -30 -13 -10 -21 -23 -18 -28 3 -5 -19 -7 -49 -4 -46 4 -55 2 -55
-12 0 -10 -8 -16 -22 -16 -13 0 -33 -3 -45 -6 -19 -5 -22 -1 -29 42 -6 43 -8
46 -17 27 -9 -21 -11 -21 -22 -6 -11 15 -13 15 -19 -4 -6 -18 -13 -20 -50 -16
-26 3 -46 1 -50 -6 -4 -6 -2 -11 3 -11 6 0 11 -5 11 -11 0 -6 -17 -10 -42 -8
-56 3 -117 -15 -158 -47 -8 -6 -26 -14 -40 -17 -14 -3 -50 -13 -80 -22 -30 -9
-66 -18 -78 -20 -13 -2 -32 -11 -42 -20 -10 -9 -43 -21 -72 -25 -29 -4 -42 -9
-28 -10 14 -1 1 -6 -30 -11 -30 -5 -59 -14 -64 -19 -6 -6 -45 -10 -88 -10 -60
0 -78 -3 -78 -14 0 -11 -28 -15 -120 -21 -66 -4 -120 -11 -120 -16 0 -4 -19
-10 -42 -12 -24 -2 -6 -4 40 -5 45 -1 82 2 82 7 0 5 47 8 104 7 82 -1 102 -4
94 -14 -6 -6 -30 -12 -53 -12 -55 0 -106 -10 -100 -20 3 -4 -43 -5 -101 -2
-95 4 -109 3 -150 -18 -41 -20 -53 -21 -117 -14 -40 5 -99 7 -132 6 -33 -2
-71 0 -85 4 l-25 7 25 7 c35 11 138 12 142 2 2 -5 18 -5 37 0 26 7 31 12 20
19 -13 8 -5 13 16 10 6 -1 3 5 -6 14 -13 13 -28 15 -82 9 -37 -4 -67 -11 -67
-15 0 -5 -18 -9 -40 -9 -22 0 -40 -4 -40 -10 0 -5 -15 -10 -34 -10 -19 0 -38
-5 -41 -11 -5 -7 -36 -9 -89 -6 -44 2 -62 2 -38 0 23 -2 42 -8 42 -12 0 -11
-304 -26 -321 -16 -8 6 -10 4 -4 -5 6 -9 54 -11 216 -7 130 3 209 2 209 -4 0
-6 58 -10 143 -9 135 0 1134 -23 1452 -35 83 -2 319 -10 525 -15 206 -6 416
-15 465 -19 l90 -8 -68 -2 c-43 0 -66 -5 -62 -11 3 -5 -1 -10 -9 -10 -9 0 -16
4 -16 8 0 5 -13 8 -30 8 -16 0 -30 -3 -30 -7 0 -3 -23 -10 -52 -13 -37 -5 -59
-14 -76 -33 -17 -19 -26 -23 -32 -14 -12 21 -40 -16 -40 -55 l0 -34 60 0 c52
0 60 3 60 19 0 14 10 20 40 25 26 4 40 11 40 21 0 9 17 23 38 33 20 9 39 20
40 25 2 4 15 7 28 7 13 0 24 5 24 10 0 6 7 10 15 10 8 0 15 -7 15 -15 0 -8 -7
-15 -15 -15 -19 0 -95 -49 -95 -61 0 -5 -11 -9 -25 -9 -18 0 -25 -5 -25 -19 0
-11 -8 -22 -17 -24 -10 -3 4571 -5 10180 -6 l10197 -1 0 1480 0 1480 -4700 -2
c-2584 -2 -4696 0 -4691 5 4 4 2119 7 4699 7 3141 0 4692 3 4692 10 0 7 -1543
10 -4666 10 -2566 0 -4671 3 -4676 7 -6 3 -8 1 -5 -4 4 -6 -4 -10 -20 -10 -21
0 -23 1 -10 9 10 5 17 14 17 21 0 7 -4 6 -10 -3 -6 -9 -10 -10 -10 -3 0 6 4
14 10 18 5 3 7 12 4 19 -6 15 10 29 36 33 8 1 150 5 315 8 165 3 442 8 615 11
173 4 455 10 625 14 171 4 401 6 513 3 123 -2 202 -1 202 5 0 6 49 10 113 11
61 1 279 4 483 7 328 5 375 4 402 -10 25 -13 61 -16 189 -14 l158 2 -150 3
c-82 2 -161 5 -174 8 -74 18 45 24 505 27 282 2 508 6 502 9 -5 3 168 9 384
12 926 16 2952 57 3288 67 201 5 523 12 715 15 193 2 416 7 498 11 l147 7 0
189 0 188 -647 -1 c-554 -1 -636 -3 -568 -14 75 -11 63 -12 -190 -13 -148 -1
-823 5 -1500 13 -811 10 -2152 15 -3939 15 l-2709 0 -36 22 c-20 12 -37 26
-39 30 -2 4 -8 8 -14 8 -6 0 -27 13 -47 28 -20 16 -59 45 -87 65 l-50 36 -85
-56z m296 -434 c309 -10 586 -25 665 -36 44 -6 44 -6 15 -14 -43 -11 -258 -37
-410 -49 -71 -6 -317 -10 -545 -10 -414 0 -630 10 -946 45 -75 8 -141 15 -147
15 -7 0 -5 4 3 9 8 5 80 14 160 21 314 27 737 33 1205 19z m-6975 -226 c0 -12
-3 -14 -8 -6 -4 6 -25 13 -47 16 -40 4 -40 4 8 5 39 2 47 -1 47 -15z m6262
-81 c-1 -8 2 -11 8 -7 6 3 8 11 5 16 -4 5 5 9 19 9 15 0 30 -8 36 -20 6 -11 8
-20 4 -20 -3 0 -1 -7 6 -15 11 -13 -95 -15 -886 -16 -972 -1 -1263 -4 -1271
-13 -3 -3 476 -6 1066 -6 856 0 1071 2 1072 12 0 10 2 10 5 1 3 -7 11 -10 19
-7 7 3 16 1 20 -5 4 -7 0 -8 -11 -4 -13 5 -15 3 -9 -8 8 -12 6 -12 -8 0 -9 7
-17 10 -17 5 0 -5 -459 -9 -1049 -9 -577 0 -1048 2 -1046 5 2 3 -53 6 -122 8
-74 2 -123 0 -119 -6 6 -10 -45 -9 -62 2 -23 14 -12 22 26 18 20 -3 34 -1 30
3 -8 8 -230 7 -253 -1 -10 -4 -15 0 -15 11 0 15 14 16 125 14 69 -1 128 1 132
4 10 11 181 8 188 -3 3 -5 14 -10 23 -9 14 0 13 2 -3 8 -20 8 240 16 895 28
212 4 507 10 655 13 416 10 541 8 537 -8z m-2565 -47 c-4 -8 -2 -15 3 -15 6 0
10 -8 9 -17 0 -11 -3 -13 -6 -5 -2 6 -9 9 -15 6 -6 -4 -13 -2 -17 4 -3 5 -45
11 -94 13 -48 2 -83 3 -77 1 5 -2 10 -9 10 -15 0 -8 -16 -11 -42 -10 -24 1
-84 2 -135 2 -78 1 -91 3 -87 16 5 11 -1 15 -20 15 -15 0 -29 -7 -32 -15 -5
-13 -41 -15 -253 -13 -135 1 -189 4 -118 5 102 3 127 6 127 18 0 12 40 14 256
14 141 0 258 2 261 5 2 2 56 5 120 5 100 1 115 0 110 -14z m-1485 -29 c5 -7 8
-7 8 2 0 9 30 12 117 12 64 0 114 -3 110 -6 -3 -3 -52 -5 -108 -5 -56 1 -105
-2 -108 -6 -3 -5 -60 -6 -126 -3 l-120 4 90 6 c129 7 129 7 137 -4z m1013 4
c-3 -5 -12 -10 -18 -10 -7 0 -6 4 3 10 19 12 23 12 15 0z m-1332 -7 c-13 -2
-35 -2 -50 0 -16 2 -5 4 22 4 28 0 40 -2 28 -4z m774 1 c-3 -3 -12 -4 -19 -1
-8 3 -5 6 6 6 11 1 17 -2 13 -5z m-1514 -661 c-7 -2 -19 -2 -25 0 -7 3 -2 5
12 5 14 0 19 -2 13 -5z m-140 -70 c-13 -2 -33 -2 -45 0 -13 2 -3 4 22 4 25 0
35 -2 23 -4z m-109 -75 c-3 -4 -14 -8 -24 -8 -10 0 -21 4 -24 8 -3 5 8 9 24 9
16 0 27 -4 24 -9z m-207 -4 c-3 -3 -12 -4 -19 -1 -8 3 -5 6 6 6 11 1 17 -2 13
-5z m-2565 -464 c-12 -11 -27 -20 -33 -20 -7 0 -5 8 6 20 10 11 25 20 33 20
12 0 11 -5 -6 -20z m-777 -410 c3 -6 -1 -7 -9 -4 -18 7 -21 14 -7 14 6 0 13
-4 16 -10z m-1528 -606 c-3 -3 -12 -4 -19 -1 -8 3 -5 6 6 6 11 1 17 -2 13 -5z
m-1124 -301 c-7 -2 -21 -2 -30 0 -10 3 -4 5 12 5 17 0 24 -2 18 -5z m-393 -83
c0 -5 -18 -10 -40 -10 -22 0 -40 5 -40 10 0 6 18 10 40 10 22 0 40 -4 40 -10z"/>
<path d="M43338 3013 c254 -2 670 -2 925 0 254 1 46 2 -463 2 -509 0 -717 -1
-462 -2z"/>
<path d="M42443 2983 c26 -2 67 -2 90 0 23 2 2 3 -48 3 -49 0 -68 -1 -42 -3z"/>
<path d="M41677 2983 c-3 -5 44 -8 104 -9 60 0 103 3 97 8 -16 10 -195 11
-201 1z"/>
<path d="M38868 3583 c6 -2 18 -2 25 0 6 3 1 5 -13 5 -14 0 -19 -2 -12 -5z"/>
<path d="M38875 3550 c3 -5 10 -10 16 -10 5 0 9 5 9 10 0 6 -7 10 -16 10 -8 0
-12 -4 -9 -10z"/>
<path d="M38818 3513 c12 -2 32 -2 45 0 12 2 2 4 -23 4 -25 0 -35 -2 -22 -4z"/>
<path d="M38608 3493 c-21 -5 -24 -23 -4 -23 8 0 16 7 20 15 3 8 4 14 3 14 -1
-1 -10 -3 -19 -6z"/>
<path d="M38640 3490 c0 -6 33 -10 79 -10 44 0 83 5 86 10 4 6 -25 10 -79 10
-51 0 -86 -4 -86 -10z"/>
<path d="M38402 3366 c-32 -12 -59 -33 -51 -39 8 -8 129 6 129 14 0 5 -8 9
-17 10 -14 0 -13 2 5 9 12 5 22 12 22 15 0 9 -53 3 -88 -9z"/>
<path d="M50538 3153 c34 -2 90 -2 125 0 34 2 6 3 -63 3 -69 0 -97 -1 -62 -3z"/>
<path d="M50038 3143 c23 -2 61 -2 85 0 23 2 4 4 -43 4 -47 0 -66 -2 -42 -4z"/>
<path d="M50440 3140 c8 -5 22 -10 30 -10 13 0 13 1 0 10 -8 5 -22 10 -30 10
-13 0 -13 -1 0 -10z"/>
<path d="M52023 3143 c549 -2 1445 -2 1990 0 546 1 97 2 -998 2 -1094 0 -1541
-1 -992 -2z"/>
<path d="M24961 3124 c0 -11 3 -14 6 -6 3 7 2 16 -1 19 -3 4 -6 -2 -5 -13z"/>
<path d="M49680 3125 c0 -8 4 -15 10 -15 5 0 7 7 4 15 -4 8 -8 15 -10 15 -2 0
-4 -7 -4 -15z"/>
<path d="M48655 3120 c3 -5 21 -10 38 -9 31 1 31 1 7 9 -36 11 -52 11 -45 0z"/>
<path d="M49978 3123 c7 -3 16 -2 19 1 4 3 -2 6 -13 5 -11 0 -14 -3 -6 -6z"/>
<path d="M50968 3118 c-8 -4 4 -8 30 -8 23 0 42 2 42 4 0 8 -60 12 -72 4z"/>
<path d="M48038 3113 c23 -2 61 -2 85 0 23 2 4 4 -43 4 -47 0 -66 -2 -42 -4z"/>
<path d="M49798 3113 c23 -2 61 -2 85 0 23 2 4 4 -43 4 -47 0 -66 -2 -42 -4z"/>
<path d="M50223 3113 c37 -2 97 -2 135 0 37 2 6 3 -68 3 -74 0 -105 -1 -67 -3z"/>
<path d="M50508 3113 c39 -2 105 -2 145 0 39 1 7 3 -73 3 -80 0 -112 -2 -72
-3z"/>
<path d="M25041 3048 c-1 -11 -9 -18 -21 -18 -13 0 -20 -7 -20 -20 0 -15 7
-20 25 -20 14 0 29 8 35 20 6 12 7 20 1 20 -5 0 -12 8 -14 18 -4 16 -5 16 -6
0z"/>
<path d="M38147 3043 c-11 -10 -8 -43 3 -43 6 0 10 11 10 25 0 26 -2 29 -13
18z"/>
<path d="M38338 3013 c7 -3 16 -2 19 1 4 3 -2 6 -13 5 -11 0 -14 -3 -6 -6z"/>
<path d="M48007 3013 c1283 -2 3383 -2 4665 0 1283 1 234 2 -2332 2 -2566 0
-3615 -1 -2333 -2z"/>
<path d="M25075 3000 c3 -5 11 -10 16 -10 6 0 7 5 4 10 -3 6 -11 10 -16 10 -6
0 -7 -4 -4 -10z"/>
<path d="M38084 2966 c-8 -20 -1 -29 20 -24 13 3 13 6 1 22 -13 17 -15 18 -21
2z"/>
<path d="M37978 2943 c6 -2 18 -2 25 0 6 3 1 5 -13 5 -14 0 -19 -2 -12 -5z"/>
<path d="M25208 2893 c6 -2 18 -2 25 0 6 3 1 5 -13 5 -14 0 -19 -2 -12 -5z"/>
<path d="M25338 2873 c7 -3 16 -2 19 1 4 3 -2 6 -13 5 -11 0 -14 -3 -6 -6z"/>
<path d="M40023 2873 c9 -2 23 -2 30 0 6 3 -1 5 -18 5 -16 0 -22 -2 -12 -5z"/>
<path d="M25320 2852 l-45 -4 33 -13 c17 -8 32 -21 32 -30 0 -21 15 -19 26 5
9 19 10 18 21 -6 11 -23 10 -25 -5 -19 -13 5 -14 3 -5 -6 7 -7 19 -9 30 -4 13
5 14 9 5 12 -13 5 -37 51 -34 66 1 4 -1 6 -5 5 -5 -1 -28 -3 -53 -6z"/>
<path d="M8897 2759 c-44 -5 -95 -16 -115 -25 -32 -13 -35 -17 -20 -25 10 -6
69 -17 130 -26 151 -21 655 -24 711 -5 20 8 37 17 37 22 0 16 -32 33 -88 47
-70 18 -536 27 -655 12z"/>
<path d="M12458 2728 c-10 -10 -14 -18 -9 -18 10 0 36 29 30 34 -2 1 -12 -6
-21 -16z"/>
<path d="M25393 2701 c-1 -13 7 -15 45 -12 26 2 43 5 37 7 -68 20 -81 21 -82
5z"/>
<path d="M25360 2700 c0 -5 5 -10 11 -10 5 0 7 5 4 10 -3 6 -8 10 -11 10 -2 0
-4 -4 -4 -10z"/>
<path d="M12371 2676 c-9 -11 -9 -16 0 -22 7 -4 9 -3 5 4 -3 5 0 12 6 15 7 2
10 7 7 11 -3 4 -12 0 -18 -8z"/>
<path d="M12385 2641 c-3 -5 -2 -12 3 -15 5 -3 9 1 9 9 0 17 -3 19 -12 6z"/>
<path d="M23298 2643 c7 -3 16 -2 19 1 4 3 -2 6 -13 5 -11 0 -14 -3 -6 -6z"/>
<path d="M8110 2559 c-184 -19 -360 -65 -360 -93 0 -21 79 -25 670 -36 537
-10 1506 -6 1680 7 78 6 81 7 44 14 -60 11 -454 44 -1013 84 -499 36 -826 44
-1021 24z"/>
<path d="M11185 2519 c-586 -40 -823 -61 -853 -78 -13 -7 -13 -9 4 -14 139
-43 1327 -82 1837 -60 l157 6 0 64 c0 34 -1 63 -2 63 -2 0 -174 7 -383 15
-411 16 -573 17 -760 4z"/>
<path d="M12486 2475 c-3 -9 -3 -36 1 -60 5 -42 8 -45 37 -45 101 0 647 21
786 31 161 10 215 20 174 32 -31 9 -260 26 -564 42 -372 19 -426 19 -434 0z"/>
<path d="M22290 2481 c0 -3 14 -7 30 -7 17 -1 30 1 30 5 0 3 -13 7 -30 7 -16
1 -30 -1 -30 -5z"/>
<path d="M22736 2188 c3 -4 11 -5 19 -1 21 7 19 12 -4 10 -11 0 -18 -5 -15 -9z"/>
<path d="M39148 2143 c7 -3 16 -2 19 1 4 3 -2 6 -13 5 -11 0 -14 -3 -6 -6z"/>
<path d="M12470 1861 c0 -21 34 -31 108 -31 58 0 45 12 -34 34 -75 20 -74 20
-74 -3z"/>
<path d="M36108 1707 c-28 -11 -38 -27 -17 -27 5 0 7 -5 3 -12 -5 -8 -2 -9 10
-5 10 4 21 7 26 7 4 0 10 11 12 25 6 27 5 28 -34 12z"/>
<path d="M25678 1653 c34 -2 88 -2 120 0 31 2 3 3 -63 3 -66 0 -92 -1 -57 -3z"/>
<path d="M23530 1539 c0 -5 5 -7 10 -4 6 3 10 8 10 11 0 2 -4 4 -10 4 -5 0
-10 -5 -10 -11z"/>
<path d="M23613 1543 c15 -2 37 -2 50 0 12 2 0 4 -28 4 -27 0 -38 -2 -22 -4z"/>
<path d="M19310 1397 c-3 -3 -44 -8 -91 -11 -234 -17 -490 -64 -547 -102 -49
-32 -13 -39 221 -42 188 -3 526 7 752 23 33 2 101 7 150 10 50 3 110 8 135 10
25 2 77 7 115 10 220 18 303 31 288 45 -13 13 -102 23 -318 35 -55 4 -116 9
-135 11 -45 7 -564 16 -570 11z"/>
<path d="M35500 1331 c0 -20 29 -37 39 -24 8 10 42 10 59 0 8 -6 12 -2 12 11
0 10 -7 19 -15 19 -8 0 -15 -4 -15 -9 0 -4 -5 -8 -11 -8 -5 0 -8 4 -5 9 4 5
-2 7 -13 4 -10 -3 -22 0 -25 6 -11 17 -26 13 -26 -8z"/>
<path d="M23001 1299 c-138 -15 -197 -38 -138 -52 31 -8 177 -24 351 -38 267
-21 527 4 484 47 -30 30 -147 45 -383 49 -126 2 -268 -1 -314 -6z"/>
<path d="M35575 1280 c-4 -6 -11 -8 -16 -5 -5 4 -9 0 -9 -8 0 -10 8 -13 25 -9
26 4 32 16 16 27 -5 3 -12 1 -16 -5z"/>
<path d="M35280 1234 c0 -22 -4 -24 -55 -24 -30 0 -55 -4 -55 -10 0 -5 22 -10
49 -10 28 0 53 5 56 10 3 6 28 10 55 10 79 0 77 34 -2 42 -45 5 -48 4 -48 -18z"/>
<path d="M35431 1251 c-8 -5 5 -7 35 -4 27 3 51 7 53 9 9 8 -75 3 -88 -5z"/>
<path d="M35390 1240 c0 -5 5 -10 10 -10 6 0 10 5 10 10 0 6 -4 10 -10 10 -5
0 -10 -4 -10 -10z"/>
<path d="M35095 1199 c-19 -7 -19 -8 2 -8 12 -1 23 -6 25 -13 3 -7 11 -9 24
-3 19 8 19 8 -1 13 -11 2 -22 8 -25 12 -3 4 -14 4 -25 -1z"/>
<path d="M35058 1093 c12 -2 32 -2 45 0 12 2 2 4 -23 4 -25 0 -35 -2 -22 -4z"/>
<path d="M34893 1033 c9 -2 25 -2 35 0 9 3 1 5 -18 5 -19 0 -27 -2 -17 -5z"/>
<path d="M34350 800 c0 -5 7 -10 16 -10 8 0 12 5 9 10 -3 6 -10 10 -16 10 -5
0 -9 -4 -9 -10z"/>
<path d="M12416 516 c-3 -111 -9 -272 -13 -358 l-6 -158 811 0 812 0 0 338 0
337 162 -3 c90 -2 271 -7 403 -10 l240 -7 -3 -160 c-1 -88 -5 -235 -8 -328
l-6 -167 5556 0 c3625 0 5556 3 5556 10 0 5 -11 12 -25 16 -24 6 -34 29 -17
36 5 1 -5 16 -21 32 -18 17 -27 21 -23 11 3 -9 6 -20 6 -25 0 -5 8 -11 18 -13
14 -4 14 -5 1 -6 -9 0 -27 9 -41 21 -47 42 -68 58 -78 58 -12 0 -60 48 -60 60
0 6 -9 10 -20 10 -11 0 -20 5 -20 10 0 6 -10 10 -22 10 -12 0 -19 3 -15 6 3 3
36 1 74 -4 118 -18 163 -22 163 -13 0 5 -8 12 -17 15 -10 4 -29 13 -43 20 -30
17 -183 33 -160 17 13 -9 13 -11 -2 -11 -10 0 -18 7 -18 15 0 8 -6 15 -14 15
-7 0 -21 11 -29 24 -10 14 -30 26 -52 30 -20 4 -33 11 -29 17 3 6 -3 13 -15
16 -23 6 -29 23 -8 23 6 0 467 -11 1022 -24 556 -13 1073 -24 1150 -25 77 -1
421 -8 765 -16 592 -14 1362 -30 1570 -34 322 -5 528 -11 541 -15 8 -2 127 -6
265 -9 l251 -4 -7 33 c-4 18 -5 35 -2 38 3 4 -44 5 -104 4 l-109 -2 85 -5 85
-6 -64 -8 c-90 -10 -261 -9 -261 2 0 6 19 12 43 14 23 2 -67 1 -200 -1 -176
-4 -243 -2 -243 6 0 7 30 12 83 15 45 2 -31 3 -168 3 -138 0 -256 4 -263 8
-18 11 -15 34 6 39 9 2 0 2 -20 0 -31 -4 -38 -2 -38 12 0 15 -9 16 -80 10 -56
-5 -80 -4 -80 4 0 6 -17 11 -40 11 -22 0 -40 4 -40 9 0 4 -15 11 -32 14 -18 4
-44 9 -58 12 -16 3 -19 3 -8 -2 19 -9 -163 -7 -299 3 -46 3 -83 10 -83 15 0 5
-9 9 -20 9 -11 0 -20 7 -20 15 0 8 -4 15 -9 15 -13 0 -20 49 -7 53 7 2 4 10
-7 21 -9 10 -17 13 -17 7 0 -6 -18 -11 -40 -11 -22 0 -40 5 -40 10 0 6 -9 10
-19 10 -11 0 -23 5 -27 11 -3 6 -17 8 -31 4 -14 -3 -56 -3 -94 1 -60 6 -69 9
-69 26 0 21 21 21 238 2 34 -3 62 -3 62 0 0 3 -16 13 -36 21 -28 12 -79 15
-220 15 -104 0 -184 -4 -184 -9 0 -9 -13 -9 -40 2 -8 3 -3638 8 -8066 10
l-8051 4 -7 -201z m16204 170 c0 -11 -19 -15 -25 -6 -3 5 1 10 9 10 9 0 16 -2
16 -4z m1209 -272 c2 -2 -12 -4 -32 -4 -20 0 -37 4 -37 10 0 8 58 3 69 -6z
m314 -61 c-13 -2 -33 -2 -45 0 -13 2 -3 4 22 4 25 0 35 -2 23 -4z m-279 -29
c5 -13 2 -15 -16 -10 -13 3 -56 6 -95 6 -42 0 -73 4 -73 10 0 6 36 10 89 10
73 0 90 -3 95 -16z m1126 1 c0 -8 -4 -15 -10 -15 -5 0 -10 7 -10 15 0 8 5 15
10 15 6 0 10 -7 10 -15z m-447 -12 c-13 -2 -33 -2 -45 0 -13 2 -3 4 22 4 25 0
35 -2 23 -4z m-5183 -18 c0 -13 -4 -14 -20 -5 -11 6 -20 13 -20 15 0 3 9 5 20
5 11 0 20 -7 20 -15z m160 -27 c0 -5 -9 -4 -20 2 -11 6 -20 12 -20 14 0 2 9 2
20 -1 11 -3 20 -9 20 -15z m-80 -18 c0 -13 -11 -13 -30 0 -12 8 -11 10 8 10
12 0 22 -4 22 -10z m303 3 c-13 -2 -33 -2 -45 0 -13 2 -3 4 22 4 25 0 35 -2
23 -4z"/>
<path d="M29045 660 c3 -5 11 -10 16 -10 6 0 7 5 4 10 -3 6 -11 10 -16 10 -6
0 -7 -4 -4 -10z"/>
<path d="M29298 553 c12 -2 32 -2 45 0 12 2 2 4 -23 4 -25 0 -35 -2 -22 -4z"/>
<path d="M29115 520 c3 -6 43 -9 88 -9 78 2 79 2 32 9 -73 12 -127 12 -120 0z"/>
<path d="M29440 500 c0 -5 7 -7 15 -4 8 4 15 8 15 10 0 2 -7 4 -15 4 -8 0 -15
-4 -15 -10z"/>
<path d="M29768 453 c7 -3 16 -2 19 1 4 3 -2 6 -13 5 -11 0 -14 -3 -6 -6z"/>
<path d="M25608 303 c7 -3 16 -2 19 1 4 3 -2 6 -13 5 -11 0 -14 -3 -6 -6z"/>
<path d="M31645 300 c-47 -7 -45 -7 23 -7 40 0 70 2 67 5 -8 9 -35 9 -90 2z"/>
<path d="M31858 303 c12 -2 32 -2 45 0 12 2 2 4 -23 4 -25 0 -35 -2 -22 -4z"/>
<path d="M31138 293 c12 -2 32 -2 45 0 12 2 2 4 -23 4 -25 0 -35 -2 -22 -4z"/>
<path d="M31268 293 c12 -2 32 -2 45 0 12 2 2 4 -23 4 -25 0 -35 -2 -22 -4z"/>
<path d="M31520 292 c0 -5 14 -7 30 -4 17 2 30 6 30 8 0 2 -13 4 -30 4 -16 0
-30 -4 -30 -8z"/>
<path d="M31858 273 c12 -2 32 -2 45 0 12 2 2 4 -23 4 -25 0 -35 -2 -22 -4z"/>
<path d="M25873 203 c9 -2 25 -2 35 0 9 3 1 5 -18 5 -19 0 -27 -2 -17 -5z"/>
<path d="M25904 146 c15 -9 44 -16 62 -16 37 0 37 0 38 -85 l1 -40 118 -3 117
-3 0 30 c0 25 -5 30 -31 36 -20 5 -34 3 -39 -4 -4 -8 -15 -9 -30 -3 -20 7 -21
10 -6 15 15 6 12 12 -20 42 -39 37 -59 43 -67 23 -4 -10 -8 -9 -16 2 -7 10
-33 15 -83 18 -71 3 -72 3 -44 -12z"/>
<path d="M34340 83 c0 -8 5 -13 12 -11 18 6 21 25 3 25 -8 0 -15 -7 -15 -14z"/>
<path d="M25958 63 c7 -3 16 -2 19 1 4 3 -2 6 -13 5 -11 0 -14 -3 -6 -6z"/>
<path d="M34312 20 c-7 -12 -8 -20 -2 -20 5 0 10 5 10 10 0 6 18 10 40 10 22
0 40 5 40 10 0 6 -17 10 -38 10 -26 0 -41 -6 -50 -20z"/>
</g>
</svg>
