<?xml version="1.0" standalone="no"?>
<!DOCTYPE svg PUBLIC "-//W3C//DTD SVG 20010904//EN"
 "http://www.w3.org/TR/2001/REC-SVG-20010904/DTD/svg10.dtd">
<svg version="1.0" xmlns="http://www.w3.org/2000/svg"
 width="360.000000pt" height="640.000000pt" viewBox="0 0 360.000000 640.000000"
 preserveAspectRatio="xMidYMid meet">

<g transform="translate(0.000000,640.000000) scale(0.100000,-0.100000)"
fill="#000000" stroke="none">
<path d="M0 5549 c0 -498 4 -848 9 -845 5 3 11 -1 14 -9 4 -10 1 -12 -11 -8
-9 3 -14 3 -10 -2 10 -11 71 -14 84 -4 6 5 24 5 40 0 16 -4 41 -4 57 0 16 4
25 4 21 -2 -6 -11 9 -12 20 -2 9 10 76 12 76 3 0 -10 47 -6 74 5 15 7 17 5 11
-6 -7 -12 -6 -12 7 -1 8 7 24 9 33 5 13 -4 16 -3 11 5 -4 7 -2 12 3 12 6 0 11
-4 11 -10 0 -5 7 -10 16 -10 9 0 12 5 8 13 -4 6 2 3 15 -7 16 -15 24 -17 33
-8 9 9 16 8 30 -5 20 -18 25 -4 6 15 -9 9 -6 11 11 7 13 -2 29 -9 36 -15 9 -8
15 -8 20 0 3 6 11 8 16 4 5 -3 7 -10 4 -15 -4 -5 -1 -9 4 -9 6 0 11 5 11 11 0
6 17 9 43 8 24 -2 48 1 55 5 7 4 17 4 23 1 17 -11 59 -13 65 -3 3 4 9 6 14 3
5 -3 40 -7 77 -8 38 -2 74 -7 82 -11 10 -6 12 -5 7 2 -5 8 0 12 14 12 11 0 23
7 26 15 8 19 21 19 21 0 0 -8 -5 -11 -11 -8 -6 3 -8 3 -4 -2 14 -15 139 -12
155 3 9 9 18 11 26 4 15 -11 77 -12 77 0 0 4 5 8 11 8 5 0 7 -4 4 -10 -3 -5 2
-10 12 -10 15 0 16 -2 3 -10 -9 -6 -10 -10 -3 -10 20 0 43 12 38 20 -3 4 11 4
30 0 19 -4 35 -6 37 -4 10 9 59 11 64 3 3 -6 13 -8 21 -5 8 3 11 1 8 -4 -10
-16 11 -12 25 5 7 8 18 15 24 15 7 0 7 -3 -1 -8 -8 -5 4 -8 27 -8 22 1 40 5
40 10 0 5 6 3 14 -3 10 -8 16 -9 21 -1 3 6 12 7 18 3 14 -9 67 -11 67 -3 0 3
9 6 20 6 13 0 19 -5 16 -13 -7 -18 -1 -16 19 4 14 13 21 14 36 5 10 -7 19 -9
19 -4 0 4 16 9 36 10 25 2 33 -1 29 -9 -5 -8 2 -9 24 -4 21 4 37 2 48 -7 9 -7
14 -8 10 -2 -4 7 3 14 18 17 14 2 28 0 31 -5 3 -5 12 -4 20 3 10 8 14 8 14 0
0 -17 31 -13 52 6 15 14 19 14 16 3 -2 -12 7 -14 45 -13 27 2 57 7 67 13 13 7
21 7 25 0 4 -6 14 -10 23 -8 10 1 23 -1 30 -5 7 -5 12 -4 12 2 0 6 5 11 11 11
5 0 8 -4 5 -8 -2 -4 4 -8 15 -8 13 0 18 5 14 15 -5 12 -2 11 13 -2 22 -20 36
-22 26 -4 -6 9 -5 9 7 0 10 -8 27 -9 51 -4 26 6 38 5 41 -3 3 -7 10 -6 22 4
11 9 16 10 11 3 -5 -9 0 -13 17 -13 13 0 27 3 31 7 12 12 36 12 36 0 0 -7 5
-5 10 3 5 8 10 10 10 4 0 -6 16 -9 38 -8 20 1 37 3 37 4 0 1 19 2 42 3 22 1
39 -1 36 -5 -6 -11 49 -10 67 1 8 6 19 7 24 3 15 -9 95 -9 90 0 -3 4 5 4 18
-1 30 -11 149 -9 167 3 10 6 12 6 7 -2 -8 -13 16 -17 28 -5 10 10 46 11 40 1
-8 -13 31 -9 44 4 8 8 12 8 12 1 0 -6 7 -13 14 -16 10 -4 13 -1 9 9 -3 7 -1
14 5 14 6 0 19 3 29 6 16 6 16 5 -2 -9 -23 -19 -13 -22 16 -6 15 8 24 7 36 -3
13 -10 17 -10 20 0 3 6 9 9 15 6 15 -10 68 -11 68 -1 0 4 5 5 10 2 7 -4 10
283 10 854 l0 861 -1800 0 -1800 0 0 -851z m3023 -856 c-7 -2 -19 -2 -25 0 -7
3 -2 5 12 5 14 0 19 -2 13 -5z m107 -2 c0 -5 -9 -7 -20 -4 -11 3 -20 7 -20 9
0 2 9 4 20 4 11 0 20 -4 20 -9z m-213 -7 c-3 -3 -12 -4 -19 -1 -8 3 -5 6 6 6
11 1 17 -2 13 -5z"/>
<path d="M3450 4670 c-9 -6 -10 -10 -3 -10 6 0 15 5 18 10 8 12 4 12 -15 0z"/>
<path d="M3068 4653 c7 -3 16 -2 19 1 4 3 -2 6 -13 5 -11 0 -14 -3 -6 -6z"/>
<path d="M446 4053 c-6 -17 -33 -38 -100 -75 -17 -9 -56 -48 -86 -86 -30 -39
-68 -78 -83 -87 -15 -9 -61 -50 -102 -92 l-75 -75 0 -1819 0 -1819 1800 0
1800 0 0 1985 c0 1884 -1 1985 -17 1985 -10 0 -34 3 -53 6 -34 5 -38 2 -103
-74 -64 -74 -73 -81 -130 -97 -34 -10 -71 -23 -81 -31 -17 -12 -25 -9 -68 22
l-49 36 -42 -28 c-23 -15 -47 -35 -54 -44 -7 -10 -33 -23 -58 -30 -33 -9 -50
-21 -61 -41 -14 -28 -16 -29 -99 -29 l-85 0 -89 -65 -90 -66 -113 6 c-89 5
-126 3 -173 -9 -101 -28 -129 -28 -284 -6 -83 12 -155 19 -161 15 -5 -3 -10
-1 -10 5 0 12 -83 7 -161 -10 -28 -5 -49 -2 -90 15 -48 21 -57 22 -80 9 -24
-12 -29 -11 -60 11 -21 16 -46 25 -70 25 -20 0 -42 7 -49 15 -7 8 -24 15 -39
15 -14 0 -35 7 -45 15 -17 13 -22 12 -44 -5 -45 -36 -92 -21 -131 44 -12 18
-40 53 -64 77 -23 24 -68 76 -100 116 -53 65 -62 71 -100 75 -36 4 -46 0 -70
-24 -16 -15 -35 -28 -42 -28 -8 0 -30 24 -50 53 -70 104 -90 126 -112 127 -12
0 -24 -8 -27 -17z"/>
</g>
</svg>
